<?xml version="1.0" encoding="UTF-8"?>
<svg version="1.1" xmlns="http://www.w3.org/2000/svg" width="1865" height="163">
<path d="M0 0 C615.45 0 1230.9 0 1865 0 C1865 53.79 1865 107.58 1865 163 C1249.55 163 634.1 163 0 163 C0 109.21 0 55.42 0 0 Z " fill="#000000" transform="translate(0,0)"/>
<path d="M0 0 C41.20447022 -2.80143707 41.20447022 -2.80143707 49.42529297 2.00097656 C54.55745774 7.32434558 57.11451791 13.81839516 59.64990234 20.67285156 C61.83887142 26.0672947 65.06828953 30.69256134 68.3125 35.5 C69.46531613 37.29062628 70.61260819 39.08482301 71.75390625 40.8828125 C72.29805176 41.73649414 72.84219727 42.59017578 73.40283203 43.46972656 C74.96486539 45.94433888 76.50115497 48.43283662 78.02734375 50.9296875 C78.49035889 51.68443359 78.95337402 52.43917969 79.43041992 53.21679688 C80.2871097 54.61793243 81.13789737 56.02270019 81.98168945 57.43164062 C82.93472516 58.98818996 83.95999708 60.50016107 85 62 C85.66 62 86.32 62 87 62 C88.51986811 60.01479329 88.51986811 60.01479329 90.0546875 57.41796875 C90.6633667 56.43272217 91.2720459 55.44747559 91.89916992 54.43237305 C92.55119385 53.36156494 93.20321777 52.29075684 93.875 51.1875 C95.24307359 48.96849348 96.61156799 46.74974634 97.98046875 44.53125 C98.66157715 43.42265625 99.34268555 42.3140625 100.04443359 41.171875 C102.72585011 36.82269106 105.4520456 32.50281304 108.1875 28.1875 C114.12985901 18.79473898 120.0648513 9.39731878 126 0 C140.85 0 155.7 0 171 0 C171 29.7 171 59.4 171 90 C158.79 90 146.58 90 134 90 C133.67 71.52 133.34 53.04 133 34 C129.37 40.6 125.74 47.2 122 54 C119.44430456 58.31948525 116.88378676 62.62445422 114.27001953 66.90722656 C112.77140473 69.37668564 111.28942522 71.85577459 109.80859375 74.3359375 C109.26066162 75.25310547 108.71272949 76.17027344 108.14819336 77.11523438 C107.06365184 78.93121087 105.97981087 80.74760597 104.89672852 82.56445312 C104.40487061 83.38623047 103.9130127 84.20800781 103.40625 85.0546875 C102.96603516 85.79187012 102.52582031 86.52905273 102.07226562 87.28857422 C101 89 101 89 100 90 C95.44820283 90.450758 90.88315198 90.51169678 86.3125 90.625 C85.03181641 90.69589844 83.75113281 90.76679687 82.43164062 90.83984375 C73.2535489 91.0212101 73.2535489 91.0212101 70.01757812 88.38500977 C68.39877893 86.00719637 67.21131721 83.60863412 66 81 C64.86476546 79.03787451 63.71551545 77.08381206 62.5546875 75.13671875 C61.32502512 72.98875081 60.09851467 70.8389757 58.875 68.6875 C52.417256 57.35104371 45.71636871 46.19394785 39 35 C38.67 53.15 38.34 71.3 38 90 C25.46 90 12.92 90 0 90 C0 60.3 0 30.6 0 0 Z " fill="#FCFCFC" transform="translate(1673,36)"/>
<path d="M0 0 C8.90056248 7.68551859 13.95416337 17.62464587 14.875 29.26171875 C15.40090508 42.17349407 13.13301989 54.19452513 4.5625 64.3125 C-6.36277257 75.94414795 -22.22915136 80.55115175 -37.77685547 81.52075195 C-41.24973661 81.61540332 -44.7133831 81.64148199 -48.1875 81.625 C-49.41597656 81.62008545 -50.64445313 81.6151709 -51.91015625 81.61010742 C-69.22613107 81.38725796 -86.40430703 78.74416099 -99.4375 66.3125 C-109.50170272 55.76904954 -112.03875082 43.13933764 -111.77734375 29.0078125 C-111.22941089 17.75358996 -105.74472786 8.16442903 -97.59765625 0.60546875 C-72.91254561 -19.3344468 -25.11460136 -18.48555877 0 0 Z " fill="#FCFCFC" transform="translate(953.4375,46.6875)"/>
<path d="M0 0 C8.28057457 6.85193272 14.0976635 16.78159252 15.52490234 27.50561523 C15.67917711 29.96826994 15.7257742 32.39984662 15.70703125 34.8671875 C15.70203613 35.73827148 15.69704102 36.60935547 15.69189453 37.50683594 C15.3707876 49.48744631 10.94454996 59.14734056 2.62109375 67.7578125 C-10.80260301 80.2361785 -29.86384108 82.5166451 -47.35546875 82.4921875 C-48.01327332 82.49164368 -48.67107788 82.49109985 -49.34881592 82.49053955 C-67.42813763 82.42198456 -85.47216809 79.92781396 -99.12109375 66.87109375 C-99.6728125 66.29230469 -100.22453125 65.71351562 -100.79296875 65.1171875 C-101.2621875 64.63121094 -101.73140625 64.14523438 -102.21484375 63.64453125 C-109.6522653 54.66912438 -111.72086447 42.14656492 -111.14453125 30.84765625 C-110.26462048 21.51082533 -107.6847761 14.4381289 -101.79296875 7.1171875 C-100.96345703 6.08271484 -100.96345703 6.08271484 -100.1171875 5.02734375 C-91.83372792 -4.21394627 -79.7686553 -8.72353476 -67.79296875 -10.8828125 C-66.77976562 -11.06585938 -65.7665625 -11.24890625 -64.72265625 -11.4375 C-42.70810342 -13.93219088 -18.86288578 -12.71595936 0 0 Z " fill="#FCFCFC" transform="translate(526.79296875,45.8828125)"/>
<path d="M0 0 C12.375 -0.04125 24.75 -0.0825 37.5 -0.125 C43.31141602 -0.15231201 43.31141602 -0.15231201 49.24023438 -0.18017578 C54.05566406 -0.18920898 54.05566406 -0.18920898 56.32629395 -0.19088745 C57.87643592 -0.19391263 59.42657389 -0.20084802 60.97668457 -0.21115112 C101.6498571 -0.46743398 101.6498571 -0.46743398 115.453125 11.3203125 C122.29456078 18.74914428 123.54378802 26.11081392 123.33984375 35.90234375 C122.93492397 43.22618323 119.83278458 48.63959277 114.4375 53.5 C112.09298642 55.36261587 109.70554297 56.72123133 107 58 C107.79664063 58.54527344 107.79664063 58.54527344 108.609375 59.1015625 C109.31578125 59.60429688 110.0221875 60.10703125 110.75 60.625 C111.44609375 61.11226562 112.1421875 61.59953125 112.859375 62.1015625 C117.85007815 66.52762405 119.55958911 71.10146133 120.6875 77.5625 C121.03361328 79.48255859 121.03361328 79.48255859 121.38671875 81.44140625 C121.58910156 82.61574219 121.79148437 83.79007812 122 85 C122.33 86.65 122.66 88.3 123 90 C111.12 90 99.24 90 87 90 C83 80 83 80 81.5625 75.6875 C80.09094533 71.83342825 78.37904043 69.49755162 75 67 C67.20588208 64.73849428 59.51416885 64.57330184 51.4375 64.375 C50.14263672 64.33632812 48.84777344 64.29765625 47.51367188 64.2578125 C44.3426651 64.16420344 41.17135281 64.08104331 38 64 C38 72.58 38 81.16 38 90 C25.46 90 12.92 90 0 90 C0 60.3 0 30.6 0 0 Z " fill="#FCFCFC" transform="translate(983,36)"/>
<path d="M0 0 C12.375 -0.04125 24.75 -0.0825 37.5 -0.125 C43.31141602 -0.15231201 43.31141602 -0.15231201 49.24023438 -0.18017578 C54.05566406 -0.18920898 54.05566406 -0.18920898 56.32629395 -0.19088745 C57.87643592 -0.19391263 59.42657389 -0.20084802 60.97668457 -0.21115112 C101.6498571 -0.46743398 101.6498571 -0.46743398 115.453125 11.3203125 C122.29456078 18.74914428 123.54378802 26.11081392 123.33984375 35.90234375 C122.93492397 43.22618323 119.83278458 48.63959277 114.4375 53.5 C112.09298642 55.36261587 109.70554297 56.72123133 107 58 C107.79664062 58.54527344 107.79664062 58.54527344 108.609375 59.1015625 C109.31578125 59.60429688 110.0221875 60.10703125 110.75 60.625 C111.44609375 61.11226562 112.1421875 61.59953125 112.859375 62.1015625 C117.85007815 66.52762405 119.55958911 71.10146133 120.6875 77.5625 C121.03361328 79.48255859 121.03361328 79.48255859 121.38671875 81.44140625 C121.58910156 82.61574219 121.79148437 83.79007812 122 85 C122.33 86.65 122.66 88.3 123 90 C111.12 90 99.24 90 87 90 C83 80 83 80 81.5625 75.6875 C80.09094533 71.83342825 78.37904043 69.49755162 75 67 C67.20588208 64.73849428 59.51416885 64.57330184 51.4375 64.375 C50.14263672 64.33632812 48.84777344 64.29765625 47.51367188 64.2578125 C44.3426651 64.16420344 41.17135281 64.08104331 38 64 C38 72.58 38 81.16 38 90 C25.46 90 12.92 90 0 90 C0 60.3 0 30.6 0 0 Z " fill="#FCFCFC" transform="translate(20,36)"/>
<path d="M0 0 C12.643125 -0.061875 25.28625 -0.12375 38.3125 -0.1875 C42.26387939 -0.21481201 46.21525879 -0.24212402 50.28637695 -0.27026367 C55.21520996 -0.28381348 55.21520996 -0.28381348 57.54264832 -0.28633118 C59.12433934 -0.2908552 60.70602189 -0.30122732 62.28764343 -0.31672668 C80.86481299 -0.48923352 101.59266995 0.0751973 116.28125 12.86328125 C121.09849046 18.851987 122.65566435 24.39839067 122.5 32 C122.52320313 33.13308594 122.52320313 33.13308594 122.546875 34.2890625 C122.50092201 40.97522232 120.47491143 46.05342451 116.17578125 51.171875 C109.50062979 56.8254624 102.51075336 59.9804992 94 62 C93.2788501 62.17112305 92.5577002 62.34224609 91.81469727 62.51855469 C81.05610951 64.68529121 70.16863694 64.21776816 59.25 64.125 C57.18490017 64.11495006 55.11979561 64.10582778 53.0546875 64.09765625 C48.03624383 64.07751803 43.01846822 64.03834144 38 64 C38 72.58 38 81.16 38 90 C25.46 90 12.92 90 0 90 C0 60.3 0 30.6 0 0 Z " fill="#FDFDFD" transform="translate(283,36)"/>
<path d="M0 0 C7.13260886 5.91054737 11.01147081 12.08799557 12.43359375 21.21484375 C6.82858411 21.31387892 1.22408613 21.38639087 -4.3815918 21.43457031 C-6.28760655 21.45465921 -8.19355987 21.48193569 -10.09936523 21.51660156 C-12.84243951 21.56524017 -15.5846975 21.58783954 -18.328125 21.60546875 C-19.17726974 21.62611389 -20.02641449 21.64675903 -20.90129089 21.66802979 C-26.12996498 21.6700033 -28.70533082 21.05796498 -32.56640625 17.21484375 C-37.21033661 14.89287857 -43.5125314 15.79034121 -48.56640625 16.21484375 C-51.37797348 17.21297482 -52.4133689 18.0618064 -54.56640625 20.21484375 C-55.06140625 21.69984375 -55.06140625 21.69984375 -55.56640625 23.21484375 C-54.61499756 23.29001221 -53.66358887 23.36518066 -52.68334961 23.44262695 C-49.07614033 23.73003968 -45.46998926 24.02932143 -41.86401367 24.33178711 C-40.31771992 24.45991179 -38.77117291 24.58502384 -37.22436523 24.70678711 C-1.44453132 27.53242885 -1.44453132 27.53242885 9.3828125 38.12109375 C13.07916794 43.12017618 14.2073895 48.10927726 13.43359375 54.21484375 C10.33757511 63.71143978 4.67488069 71.55333643 -3.56640625 77.21484375 C-8.12556611 79.30489741 -12.73754788 80.87233787 -17.56640625 82.21484375 C-18.20312256 82.40030762 -18.83983887 82.58577148 -19.49584961 82.77685547 C-26.63521095 84.63958654 -33.78802731 84.59991417 -41.12890625 84.58984375 C-41.79459625 84.58929993 -42.46028625 84.5887561 -43.14614868 84.5881958 C-58.55107267 84.53026774 -73.88109971 82.90048244 -85.875 72.14453125 C-90.81928931 66.93715132 -95.56640625 60.658709 -95.56640625 53.21484375 C-89.97973661 53.09090739 -84.39387342 53.0003462 -78.80615234 52.94018555 C-76.90692194 52.91509771 -75.00778755 52.88101907 -73.10888672 52.83764648 C-70.37313104 52.77674045 -67.63865555 52.74857722 -64.90234375 52.7265625 C-64.05836029 52.70075607 -63.21437683 52.67494965 -62.34481812 52.64836121 C-56.27104858 52.64549532 -53.90203258 53.99913208 -49.56640625 58.21484375 C-44.10094827 60.03666308 -38.5570844 59.90253256 -33.12890625 58.02734375 C-30.30076404 56.02695048 -29.24104042 54.19793844 -27.56640625 51.21484375 C-35.74089197 50.09960187 -43.88016581 49.16679961 -52.10864258 48.56298828 C-82.37551475 46.27954452 -82.37551475 46.27954452 -91.56640625 37.21484375 C-95.4707623 32.34776976 -96.26202433 27.15402497 -96.015625 21.01953125 C-94.64751138 12.47774363 -89.2455937 4.74550337 -82.41796875 -0.40625 C-60.69918315 -14.49886008 -21.52893486 -14.97522562 0 0 Z " fill="#FBFBFB" transform="translate(648.56640625,43.78515625)"/>
<path d="M0 0 C33.99 0 67.98 0 103 0 C103 7.26 103 14.52 103 22 C81.55 22 60.1 22 38 22 C38 26.62 38 31.24 38 36 C56.15 36 74.3 36 93 36 C93 41.94 93 47.88 93 54 C74.85 54 56.7 54 38 54 C38 58.62 38 63.24 38 68 C61.1 68 84.2 68 108 68 C108 75.26 108 82.52 108 90 C72.36 90 36.72 90 0 90 C0 60.3 0 30.6 0 0 Z " fill="#FDFDFD" transform="translate(1397,36)"/>
<path d="M0 0 C33.99 0 67.98 0 103 0 C103 7.26 103 14.52 103 22 C81.55 22 60.1 22 38 22 C38 26.62 38 31.24 38 36 C56.15 36 74.3 36 93 36 C93 41.94 93 47.88 93 54 C74.85 54 56.7 54 38 54 C38 58.62 38 63.24 38 68 C61.1 68 84.2 68 108 68 C108 75.26 108 82.52 108 90 C72.36 90 36.72 90 0 90 C0 60.3 0 30.6 0 0 Z " fill="#FDFDFD" transform="translate(159,36)"/>
<path d="M0 0 C1.42083121 -0.146673 2.84411379 -0.27067858 4.26855469 -0.37670898 C5.02740967 -0.43375 5.78626465 -0.49079102 6.56811523 -0.54956055 C28.55960543 -1.90927966 28.55960543 -1.90927966 35.50292969 2.45922852 C40.09739927 7.34929817 42.61241811 13.33965485 45.20898438 19.45629883 C47.74910494 25.00035893 51.19324563 29.93732161 54.56542969 35.00219727 C55.91459014 37.09982092 57.25962138 39.20010596 58.60058594 41.30297852 C59.27234863 42.35179199 59.94411133 43.40060547 60.63623047 44.48120117 C62.71678676 47.73086492 64.79565108 50.98160513 66.87402344 54.23266602 C68.2503038 56.38502366 69.62660558 58.5373676 71.00292969 60.68969727 C71.99462158 62.2410437 71.99462158 62.2410437 73.00634766 63.82373047 C76.03626322 68.55944078 79.07406847 73.28947985 82.13964844 78.00219727 C82.65938232 78.80141602 83.17911621 79.60063477 83.71459961 80.42407227 C84.67225522 81.89422016 85.63193494 83.36305229 86.59399414 84.83032227 C89.69042969 89.58088563 89.69042969 89.58088563 89.69042969 90.68969727 C76.82042969 90.68969727 63.95042969 90.68969727 50.69042969 90.68969727 C48.05042969 86.06969727 45.41042969 81.44969727 42.69042969 76.68969727 C37.48408626 75.26432828 34.62350199 74.8871345 29.44042969 75.10375977 C28.18657471 75.10137299 26.93271973 75.09898621 25.64086914 75.0965271 C22.3298756 75.10264347 19.02744687 75.16873792 15.71807861 75.26483154 C12.33285475 75.34808394 8.94761605 75.35130641 5.56152344 75.36157227 C-1.06461073 75.39774813 -7.68576941 75.51314304 -14.30957031 75.68969727 C-14.53644531 76.49407227 -14.76332031 77.29844727 -14.99707031 78.12719727 C-16.30957031 81.68969727 -16.30957031 81.68969727 -21.30957031 90.68969727 C-34.17957031 90.68969727 -47.04957031 90.68969727 -60.30957031 90.68969727 C-57.12671543 84.96055848 -53.96224926 79.44955149 -50.37207031 74.00219727 C-49.40380103 72.51966047 -48.43639718 71.03655819 -47.46972656 69.55297852 C-46.95941895 68.77003418 -46.44911133 67.98708984 -45.92333984 67.18041992 C-43.02211811 62.702619 -40.16819958 58.19475965 -37.30957031 53.68969727 C-32.74476576 46.5016262 -28.15063026 39.33433824 -23.51293945 32.19311523 C-18.93127005 25.12763206 -14.41656832 18.01972221 -9.90332031 10.91040039 C-9.33484375 10.01514648 -8.76636719 9.11989258 -8.18066406 8.19750977 C-7.67462646 7.39974121 -7.16858887 6.60197266 -6.6472168 5.7800293 C-3.40215536 0.70899151 -3.40215536 0.70899151 0 0 Z " fill="#FDFDFD" transform="translate(1572.3095703125,35.310302734375)"/>
<path d="M0 0 C35.97 0 71.94 0 109 0 C109 7.59 109 15.18 109 23 C97.45 23 85.9 23 74 23 C74 45.11 74 67.22 74 90 C61.13 90 48.26 90 35 90 C35 67.89 35 45.78 35 23 C23.45 23 11.9 23 0 23 C0 15.41 0 7.82 0 0 Z " fill="#F7F7F7" transform="translate(1274,36)"/>
<path d="M0 0 C35.97 0 71.94 0 109 0 C109 7.59 109 15.18 109 23 C97.45 23 85.9 23 74 23 C74 45.11 74 67.22 74 90 C61.13 90 48.26 90 35 90 C35 67.89 35 45.78 35 23 C23.45 23 11.9 23 0 23 C0 15.41 0 7.82 0 0 Z " fill="#F7F7F7" transform="translate(729,36)"/>
<path d="M0 0 C37.6892947 -3.94107124 37.6892947 -3.94107124 48.11366272 3.5846405 C55.05246338 9.36051234 61.95653007 16.91306014 66 25 C69.90487467 24.44500366 71.67860926 22.6835233 74.40625 19.921875 C75.23253906 19.09042969 76.05882812 18.25898437 76.91015625 17.40234375 C77.76480469 16.52707031 78.61945313 15.65179688 79.5 14.75 C80.78197266 13.46029297 80.78197266 13.46029297 82.08984375 12.14453125 C86.78861805 7.51934633 86.78861805 7.51934633 90.67675781 2.24243164 C93.75524791 -0.72897773 95.69736921 -0.56835129 99.85675049 -0.56648254 C100.75480408 -0.54067612 101.65285767 -0.51486969 102.578125 -0.48828125 C103.96798615 -0.47766914 103.96798615 -0.47766914 105.38592529 -0.46684265 C108.34144285 -0.43888371 111.29505644 -0.37614272 114.25 -0.3125 C116.25518095 -0.28741906 118.26039163 -0.26460553 120.265625 -0.24414062 C125.17781543 -0.18905204 130.08858507 -0.10276911 135 0 C131.76279038 3.8290066 128.5212452 7.60521969 124.9765625 11.15625 C123.90921875 12.22552734 123.90921875 12.22552734 122.8203125 13.31640625 C122.09585937 14.03699219 121.37140625 14.75757813 120.625 15.5 C119.90828125 16.22058594 119.1915625 16.94117187 118.453125 17.68359375 C106.79919323 29.31648954 106.79919323 29.31648954 99.75390625 33.671875 C93.88266208 37.73363889 89.01099775 42.03788574 87.52362061 49.33813477 C85.75189845 62.75964439 86.47598396 76.51849653 87 90 C74.46 90 61.92 90 49 90 C49.06703125 87.03515625 49.1340625 84.0703125 49.203125 81.015625 C49.22718614 78.10609549 49.2305191 75.19721626 49.23193359 72.28759766 C49.24385154 70.28377185 49.27692384 68.27994534 49.33251953 66.27685547 C49.97900564 52.92722144 49.97900564 52.92722144 44.02532959 41.54412842 C41.47338012 39.16120153 38.80608057 37.08238405 36 35 C34.61410882 33.80417389 33.23736386 32.59756254 31.875 31.375 C31.25109375 30.84261719 30.6271875 30.31023437 29.984375 29.76171875 C24.88523671 25.23472787 20.20485758 20.23826451 15.421875 15.3828125 C10.89538803 10.81467074 6.32437583 6.41474255 1.3984375 2.27734375 C0.93695312 1.85582031 0.47546875 1.43429688 0 1 C0 0.67 0 0.34 0 0 Z " fill="#FCFCFC" transform="translate(1101,36)"/>
<path d="M0 0 C12.54 0 25.08 0 38 0 C38 29.7 38 59.4 38 90 C25.46 90 12.92 90 0 90 C0 60.3 0 30.6 0 0 Z " fill="#FDFDFD" transform="translate(677,36)"/>
<path d="M0 0 C4.5672376 3.39190357 7.56085585 7.0776848 9.1875 12.5625 C10.25938179 20.35537029 9.89794625 28.01801446 5.1875 34.5625 C-0.98989904 40.78009903 -7.49717681 42.60598934 -16.125 43 C-23.56224131 42.86322315 -29.12560234 40.8584792 -34.69140625 35.8828125 C-40.1096981 30.00755627 -41.30249991 24.17308413 -41.12109375 16.30859375 C-40.3518219 9.46304801 -36.9203853 5.1421752 -31.7890625 0.7890625 C-23.29672382 -4.4808868 -8.74590272 -4.76209786 0 0 Z " fill="#020202" transform="translate(494.8125,61.4375)"/>
<path d="M0 0 C0.86882813 -0.03287109 1.73765625 -0.06574219 2.6328125 -0.09960938 C9.83818017 -0.15911316 14.55276429 1.9402108 19.77587891 6.88085938 C24.89740666 12.55290965 25.71685441 18.30551008 25.56640625 25.6875 C24.93473083 31.17761719 22.44136207 34.89573732 19.125 39.1875 C12.18095417 44.62197065 5.10523889 46.12255822 -3.62890625 45.82421875 C-10.78135761 44.93799511 -16.17750854 42.05513237 -20.75 36.4375 C-25.35756928 30.33558393 -25.54130619 24.94990055 -24.75 17.4375 C-23.52203499 10.40352567 -19.44628149 6.48284386 -13.75 2.4375 C-9.23773636 -0.16965193 -5.1008028 0.03346008 0 0 Z " fill="#020202" transform="translate(904.75,58.5625)"/>
<path d="M0 0 C4.65959225 -0.06935446 9.31735114 -0.12893637 13.97705078 -0.16479492 C15.55784211 -0.17976271 17.13859278 -0.20014437 18.71923828 -0.22631836 C38.85699728 -0.55112092 38.85699728 -0.55112092 46.625 4.8125 C48.52984417 7.84293391 48.6460221 9.48276854 48 13 C45.48963686 16.68186593 43.13285863 18.21815449 38.875 19.1328125 C31.27886706 20.52624326 23.56503143 20.21261214 15.875 20.125 C14.33073499 20.11494704 12.78646362 20.10582529 11.2421875 20.09765625 C7.49450266 20.07755064 3.74771807 20.03837254 0 20 C0 13.4 0 6.8 0 0 Z " fill="#0B0B0B" transform="translate(320,58)"/>
<path d="M0 0 C4.33819237 -0.06955534 8.67438574 -0.12907103 13.01269531 -0.16479492 C14.48281473 -0.17971429 15.952891 -0.20005727 17.42285156 -0.22631836 C39.24906246 -0.60596937 39.24906246 -0.60596937 45.79003906 4.35864258 C47.56625447 6.76814544 47.53757118 9.14995018 47.3984375 12.06640625 C47 14 47 14 45.125 16.375 C35.98300387 21.12883799 25.39917452 20.24298384 15.375 20.125 C13.87891227 20.11494608 12.38281797 20.10582451 10.88671875 20.09765625 C7.25751348 20.07756098 3.6292397 20.03838209 0 20 C0 13.4 0 6.8 0 0 Z " fill="#080808" transform="translate(1021,58)"/>
<path d="M0 0 C4.33819237 -0.06955534 8.67438574 -0.12907103 13.01269531 -0.16479492 C14.48281473 -0.17971429 15.952891 -0.20005727 17.42285156 -0.22631836 C39.24906246 -0.60596937 39.24906246 -0.60596937 45.79003906 4.35864258 C47.56625447 6.76814544 47.53757118 9.14995018 47.3984375 12.06640625 C47 14 47 14 45.125 16.375 C35.98300387 21.12883799 25.39917452 20.24298384 15.375 20.125 C13.87891227 20.11494608 12.38281797 20.10582451 10.88671875 20.09765625 C7.25751348 20.07756098 3.6292397 20.03838209 0 20 C0 13.4 0 6.8 0 0 Z " fill="#080808" transform="translate(58,58)"/>
<path d="M0 0 C0.66 0 1.32 0 2 0 C3.51220703 2.17138672 3.51220703 2.17138672 5.2578125 5.1796875 C5.88300781 6.25347656 6.50820312 7.32726562 7.15234375 8.43359375 C7.80332031 9.56925781 8.45429687 10.70492187 9.125 11.875 C9.78371094 13.00292969 10.44242188 14.13085938 11.12109375 15.29296875 C16 23.72751682 16 23.72751682 16 26 C6.1 26 -3.8 26 -14 26 C-12.53857159 22.34642897 -11.12067045 19.28371578 -9.1796875 15.91796875 C-8.64472656 14.98662109 -8.10976562 14.05527344 -7.55859375 13.09570312 C-7.00300781 12.13599609 -6.44742187 11.17628906 -5.875 10.1875 C-5.31167969 9.20845703 -4.74835938 8.22941406 -4.16796875 7.22070312 C-2.78155585 4.81210445 -1.39214945 2.40528605 0 0 Z " fill="#050505" transform="translate(1586,63)"/>
</svg>
