<?xml version="1.0" standalone="no"?>
<!DOCTYPE svg PUBLIC "-//W3C//DTD SVG 20010904//EN"
 "http://www.w3.org/TR/2001/REC-SVG-20010904/DTD/svg10.dtd">
<svg version="1.0" xmlns="http://www.w3.org/2000/svg"
 width="1865.000000pt" height="163.000000pt" viewBox="0 0 1865.000000 163.000000"
 preserveAspectRatio="xMidYMid meet">
<metadata>
Created by potrace 1.16, written by Peter Selinger 2001-2019
</metadata>
<g transform="translate(0.000000,163.000000) scale(0.100000,-0.100000)"
fill="#000000" stroke="none">
<path d="M0 815 l0 -815 9325 0 9325 0 0 815 0 815 -9325 0 -9325 0 0 -815z
m5030 450 c105 -22 210 -74 269 -133 91 -91 127 -195 119 -349 -5 -82 -10
-103 -42 -168 -62 -125 -170 -202 -341 -242 -118 -27 -399 -24 -506 5 -216 59
-331 176 -361 366 -23 151 21 294 121 389 31 30 75 64 97 75 56 28 167 60 249
71 94 13 302 6 395 -14z m1275 0 c141 -37 224 -97 275 -197 16 -34 30 -67 30
-75 0 -10 -39 -13 -199 -13 -168 0 -201 2 -212 16 -54 66 -220 60 -263 -9 -16
-25 4 -35 94 -42 351 -29 460 -56 536 -132 85 -84 57 -233 -63 -343 -95 -87
-202 -115 -438 -114 -227 0 -335 30 -435 120 -37 34 -100 141 -100 171 0 10
39 13 198 13 197 0 199 0 221 -24 29 -30 107 -50 162 -41 24 4 55 20 75 38 55
47 37 55 -166 73 -96 8 -206 21 -245 29 -205 39 -286 148 -226 305 50 132 174
213 366 239 94 13 316 5 390 -14z m3003 -5 c255 -61 388 -234 369 -480 -22
-280 -240 -430 -627 -430 -388 0 -608 151 -627 430 -19 283 147 458 477 500
101 13 313 3 408 -20z m-8183 -13 c214 -46 294 -120 303 -278 7 -124 -38 -213
-132 -261 l-40 -20 30 -15 c72 -37 95 -74 119 -192 9 -47 19 -91 22 -98 4 -10
-31 -13 -175 -13 l-180 0 -16 45 c-9 25 -24 66 -33 93 -21 59 -60 96 -117 111
-25 6 -108 11 -185 11 l-141 0 0 -130 0 -130 -190 0 -190 0 0 443 c0 244 3
447 8 451 4 4 196 6 427 3 325 -4 436 -8 490 -20z m1495 -87 l0 -110 -325 0
-325 0 0 -70 0 -70 275 0 275 0 0 -90 0 -90 -275 0 -275 0 0 -70 0 -70 350 0
350 0 0 -110 0 -110 -540 0 -540 0 0 450 0 450 515 0 515 0 0 -110z m1028 99
c294 -32 410 -125 405 -325 -3 -112 -57 -190 -164 -239 -104 -46 -175 -56
-436 -62 l-243 -5 0 -129 0 -129 -190 0 -190 0 0 450 0 450 360 0 c199 0 404
-5 458 -11z m3502 -439 l0 -450 -190 0 -190 0 0 450 0 450 190 0 190 0 0 -450z
m1230 340 l0 -110 -177 -2 -178 -3 -3 -337 -2 -338 -185 0 -185 0 -2 338 -3
337 -177 3 -178 2 0 104 c0 56 3 106 7 109 3 4 249 7 545 7 l538 0 0 -110z
m2375 87 c214 -46 294 -120 303 -278 7 -124 -38 -213 -132 -261 l-40 -20 30
-15 c72 -37 95 -74 119 -192 9 -47 19 -91 22 -98 4 -10 -31 -13 -175 -13
l-180 0 -16 45 c-9 25 -24 66 -33 93 -21 59 -60 96 -117 111 -25 6 -108 11
-185 11 l-141 0 0 -130 0 -130 -190 0 -190 0 0 443 c0 244 3 447 8 451 4 4
196 6 427 3 325 -4 436 -8 490 -20z m803 -111 l131 -134 131 134 132 134 206
0 207 -1 -243 -237 -243 -237 1 -212 0 -213 -190 0 -190 0 0 213 0 214 -77 74
c-43 41 -154 147 -247 236 l-168 163 209 0 210 0 131 -134z m2272 24 l0 -110
-177 -2 -178 -3 -3 -337 -2 -338 -185 0 -185 0 -2 338 -3 337 -177 3 -178 2 0
104 c0 56 3 106 7 109 3 4 249 7 545 7 l538 0 0 -110z m1170 0 l0 -110 -325 0
-325 0 0 -70 0 -70 275 0 275 0 0 -90 0 -90 -275 0 -275 0 0 -70 0 -70 350 0
350 0 0 -110 0 -110 -540 0 -540 0 0 450 0 450 515 0 515 0 0 -110z m1305
-296 c143 -224 272 -426 288 -450 l27 -44 -192 0 -193 0 -40 73 -40 72 -285 0
-285 0 -40 -72 -40 -73 -193 0 -194 0 19 29 c10 15 139 218 288 450 l270 421
175 0 175 0 260 -406z m1078 91 c109 -173 202 -315 207 -315 4 0 97 142 206
315 l199 315 223 0 222 0 0 -450 0 -450 -185 0 -185 0 0 282 c0 176 -4 278 -9
272 -6 -5 -81 -130 -169 -279 l-159 -270 -144 0 -144 0 -160 272 c-88 150
-163 275 -167 279 -5 4 -8 -119 -8 -274 l0 -282 -190 0 -190 0 0 443 c0 244 3
447 7 450 3 4 106 7 227 7 l221 -1 198 -314z"/>
<path d="M4729 1040 c-62 -11 -101 -33 -137 -75 -93 -113 -58 -280 72 -347 64
-33 194 -32 261 3 75 38 109 92 113 182 3 64 0 78 -25 127 -24 46 -38 59 -83
82 -62 30 -133 40 -201 28z"/>
<path d="M8989 1040 c-60 -10 -99 -31 -136 -74 -92 -104 -60 -283 62 -345 42
-22 62 -26 135 -25 94 1 139 16 184 61 84 83 88 226 10 313 -54 60 -155 87
-255 70z"/>
<path d="M588 1045 c-5 -5 -8 -50 -8 -102 l0 -93 143 0 c247 0 319 22 325 97
3 44 -12 63 -68 82 -41 14 -381 27 -392 16z"/>
<path d="M3210 950 l0 -103 183 5 c205 6 254 17 275 61 23 47 7 86 -45 109
-37 16 -75 20 -229 25 l-184 6 0 -103z"/>
<path d="M10218 1045 c-5 -5 -8 -50 -8 -102 l0 -93 143 0 c247 0 319 22 325
97 3 44 -12 63 -68 82 -41 14 -381 27 -392 16z"/>
<path d="M15791 875 c-39 -69 -71 -127 -71 -130 0 -3 68 -5 151 -5 83 0 149 4
147 8 -12 30 -143 252 -149 252 -3 0 -39 -56 -78 -125z"/>
</g>
</svg>
