<?xml version="1.0" encoding="UTF-8"?>
<svg version="1.1" xmlns="http://www.w3.org/2000/svg" width="1865" height="180">
<path d="M0 0 C615.45 0 1230.9 0 1865 0 C1865 59.4 1865 118.8 1865 180 C1249.55 180 634.1 180 0 180 C0 120.6 0 61.2 0 0 Z " fill="#000000" transform="translate(0,0)"/>
<path d="M0 0 C1.0442086 0.00303635 1.0442086 0.00303635 2.10951233 0.00613403 C2.83956985 0.00438171 3.56962738 0.00262939 4.32180786 0.00082397 C6.74650924 -0.00359443 9.17113828 -0.00065661 11.59584045 0.00271606 C13.27353428 0.00204302 14.95122802 0.00107299 16.62892151 -0.00018311 C20.14964219 -0.00166006 23.67033755 0.0004944 27.1910553 0.00515747 C31.71419541 0.01085476 36.23727619 0.00757574 40.76041412 0.00158501 C44.22611441 -0.00202067 47.69180052 -0.00088199 51.15750122 0.0017128 C52.8257447 0.00238205 54.49398945 0.00155371 56.16223145 -0.00076675 C58.48974539 -0.00329339 60.81716193 0.00054744 63.14466858 0.00613403 C63.84080765 0.0041098 64.53694672 0.00208557 65.25418091 0 C70.01282772 0.02126583 70.01282772 0.02126583 71.12709045 1.13552856 C71.49469777 3.4637082 71.82950626 5.79736706 72.12709045 8.13552856 C73.26146545 8.27990356 74.39584045 8.42427856 75.56459045 8.57302856 C79.12709045 9.13552856 79.12709045 9.13552856 80.12709045 10.13552856 C80.16801983 12.4685029 80.16950769 14.80258081 80.12709045 17.13552856 C81.26146545 17.11490356 82.39584045 17.09427856 83.56459045 17.07302856 C87.12709045 17.13552856 87.12709045 17.13552856 88.12709045 18.13552856 C88.22773244 21.17418617 88.26323635 24.19015586 88.25648499 27.22927856 C88.25911346 28.66086304 88.25911346 28.66086304 88.26179504 30.12136841 C88.26621532 33.29277334 88.26327495 36.46412301 88.25990295 39.63552856 C88.26057594 41.82888805 88.26154592 44.02224746 88.26280212 46.21560669 C88.26427934 50.81912952 88.26212379 55.42263298 88.25746155 60.02615356 C88.25176425 65.94157452 88.25504313 71.8569501 88.26103401 77.77236938 C88.264639 82.30350082 88.26350133 86.83462142 88.26090622 91.36575317 C88.26023678 93.54755661 88.26106597 95.72936102 88.26338577 97.91116333 C88.26591127 100.95472846 88.26207315 103.99821902 88.25648499 107.04177856 C88.25850922 107.95298462 88.26053345 108.86419067 88.26261902 109.80300903 C88.24135275 116.02126627 88.24135275 116.02126627 87.12709045 117.13552856 C84.79411612 117.17645794 82.46003821 117.1779458 80.12709045 117.13552856 C80.16834045 118.24927856 80.20959045 119.36302856 80.25209045 120.51052856 C80.12709045 124.13552856 80.12709045 124.13552856 78.12709045 126.13552856 C74.50209045 126.26052856 74.50209045 126.26052856 71.12709045 126.13552856 C71.14771545 127.26990356 71.16834045 128.40427856 71.18959045 129.57302856 C71.12709045 133.13552856 71.12709045 133.13552856 70.12709045 134.13552856 C67.7899472 134.23576411 65.4823472 134.27172059 63.14466858 134.2649231 C62.41461105 134.26667542 61.68455353 134.26842773 60.93237305 134.27023315 C58.50767167 134.27465156 56.08304263 134.27171373 53.65834045 134.26834106 C51.98064663 134.26901411 50.30295289 134.26998414 48.6252594 134.27124023 C45.10453872 134.27271719 41.58384336 134.27056273 38.06312561 134.26589966 C33.5399855 134.26020237 29.01690472 134.26348138 24.49376678 134.26947212 C21.0280665 134.2730778 17.56238039 134.27193912 14.09667969 134.26934433 C12.42843621 134.26867508 10.76019146 134.26950342 9.09194946 134.27182388 C6.76443552 134.27435052 4.43701898 134.27050969 2.10951233 134.2649231 C1.41337326 134.26694733 0.71723419 134.26897156 0 134.27105713 C-4.75864681 134.2497913 -4.75864681 134.2497913 -5.87290955 133.13552856 C-5.97130661 131.42958765 -5.99922983 129.71954886 -5.99989319 128.01077271 C-6.00271301 126.90017487 -6.00553284 125.78957703 -6.00843811 124.64532471 C-6.00641388 123.41619354 -6.00438965 122.18706238 -6.00230408 120.92068481 C-6.0040564 119.63467377 -6.00580872 118.34866272 -6.00761414 117.02368164 C-6.01218808 113.48658692 -6.01039907 109.94952125 -6.00723505 106.41242599 C-6.00471125 102.71864491 -6.00704904 99.02486638 -6.00862122 95.33108521 C-6.01044285 89.1268977 -6.00803676 82.92272208 -6.00328064 76.71853638 C-5.99783803 69.53569492 -5.99960069 62.35288185 -6.00510705 55.17004108 C-6.00963835 49.01379051 -6.01028864 42.85754851 -6.00766838 36.70129681 C-6.00610569 33.01971153 -6.00591159 29.33813961 -6.00920486 25.65655518 C-6.01261767 21.55447699 -6.00789357 17.45244809 -6.00230408 13.35037231 C-6.00432831 12.12124115 -6.00635254 10.89210999 -6.00843811 9.62573242 C-6.00561829 8.51513458 -6.00279846 7.40453674 -5.99989319 6.26028442 C-5.99951616 5.28909164 -5.99913914 4.31789886 -5.99875069 3.317276 C-5.76146069 -0.7966953 -3.59587003 0.01606952 0 0 Z " fill="#FDFDFD" transform="translate(1024.8729095458984,29.864471435546875)"/>
<path d="M0 0 C1.0442086 0.00303635 1.0442086 0.00303635 2.10951233 0.00613403 C2.83956985 0.00438171 3.56962738 0.00262939 4.32180786 0.00082397 C6.74650924 -0.00359443 9.17113828 -0.00065661 11.59584045 0.00271606 C13.27353428 0.00204302 14.95122802 0.00107299 16.62892151 -0.00018311 C20.14964219 -0.00166006 23.67033755 0.0004944 27.1910553 0.00515747 C31.71419541 0.01085476 36.23727619 0.00757574 40.76041412 0.00158501 C44.22611441 -0.00202067 47.69180052 -0.00088199 51.15750122 0.0017128 C52.8257447 0.00238205 54.49398945 0.00155371 56.16223145 -0.00076675 C58.48974539 -0.00329339 60.81716193 0.00054744 63.14466858 0.00613403 C63.84080765 0.0041098 64.53694672 0.00208557 65.25418091 0 C70.01282772 0.02126583 70.01282772 0.02126583 71.12709045 1.13552856 C71.49469777 3.4637082 71.82950626 5.79736706 72.12709045 8.13552856 C73.26146545 8.27990356 74.39584045 8.42427856 75.56459045 8.57302856 C79.12709045 9.13552856 79.12709045 9.13552856 80.12709045 10.13552856 C80.16801983 12.4685029 80.16950769 14.80258081 80.12709045 17.13552856 C81.26146545 17.11490356 82.39584045 17.09427856 83.56459045 17.07302856 C87.12709045 17.13552856 87.12709045 17.13552856 88.12709045 18.13552856 C88.22240026 21.17955278 88.25260684 24.20084565 88.24061584 27.24514771 C88.24076187 28.20114365 88.2409079 29.15713959 88.24105835 30.1421051 C88.24035881 33.31832101 88.23256448 36.49447908 88.2247467 39.67068481 C88.22288267 41.86643949 88.2214587 44.06219459 88.22045898 46.25794983 C88.21663264 52.0497349 88.20680136 57.84149506 88.195755 63.63327026 C88.18554338 69.53831648 88.1809619 75.4433667 88.17591858 81.34841919 C88.1651792 92.94413328 88.14810139 104.53982886 88.12709045 116.13552856 C86.99271545 116.39334106 85.85834045 116.65115356 84.68959045 116.91677856 C82.92615295 117.52005981 82.92615295 117.52005981 81.12709045 118.13552856 C80.79709045 119.29052856 80.46709045 120.44552856 80.12709045 121.63552856 C79.79709045 122.79052856 79.46709045 123.94552856 79.12709045 125.13552856 C76.79375712 125.80219523 74.46042379 126.4688619 72.12709045 127.13552856 C70.85724004 130.64199629 70.85724004 130.64199629 70.12709045 134.13552856 C60.36558057 134.15865302 50.60407716 134.17644418 40.84254551 134.18734074 C36.31034951 134.19256934 31.77817219 134.19966657 27.24598694 134.21096802 C22.87586215 134.22179771 18.50575538 134.22780557 14.13561821 134.23040581 C12.46458083 134.23225991 10.79354448 134.23588024 9.12251472 134.24125862 C6.79011494 134.24847015 4.45779053 134.24951946 2.12538147 134.24905396 C1.42767136 134.25264923 0.72996124 134.25624451 0.0111084 134.25994873 C-4.75885738 134.24958073 -4.75885738 134.24958073 -5.87290955 133.13552856 C-5.97130661 131.42958765 -5.99922983 129.71954886 -5.99989319 128.01077271 C-6.00271301 126.90017487 -6.00553284 125.78957703 -6.00843811 124.64532471 C-6.00641388 123.41619354 -6.00438965 122.18706238 -6.00230408 120.92068481 C-6.0040564 119.63467377 -6.00580872 118.34866272 -6.00761414 117.02368164 C-6.01218808 113.48658692 -6.01039907 109.94952125 -6.00723505 106.41242599 C-6.00471125 102.71864491 -6.00704904 99.02486638 -6.00862122 95.33108521 C-6.01044285 89.1268977 -6.00803676 82.92272208 -6.00328064 76.71853638 C-5.99783803 69.53569492 -5.99960069 62.35288185 -6.00510705 55.17004108 C-6.00963835 49.01379051 -6.01028864 42.85754851 -6.00766838 36.70129681 C-6.00610569 33.01971153 -6.00591159 29.33813961 -6.00920486 25.65655518 C-6.01261767 21.55447699 -6.00789357 17.45244809 -6.00230408 13.35037231 C-6.00432831 12.12124115 -6.00635254 10.89210999 -6.00843811 9.62573242 C-6.00561829 8.51513458 -6.00279846 7.40453674 -5.99989319 6.26028442 C-5.99951616 5.28909164 -5.99913914 4.31789886 -5.99875069 3.317276 C-5.76146069 -0.7966953 -3.59587003 0.01606952 0 0 Z " fill="#56B7C0" transform="translate(34.87290954589844,29.864471435546875)"/>
<path d="M0 0 C7.3973076 -0.04629419 14.79458407 -0.08185426 22.19200706 -0.10362434 C25.62675459 -0.1140717 29.06140317 -0.12824805 32.49609375 -0.15087891 C36.44269638 -0.17672063 40.38925863 -0.18646493 44.3359375 -0.1953125 C45.57242035 -0.20563507 46.8089032 -0.21595764 48.08285522 -0.22659302 C49.22388702 -0.22674408 50.36491882 -0.22689514 51.54052734 -0.22705078 C52.548685 -0.231492 53.55684265 -0.23593323 54.59555054 -0.24050903 C57 0 57 0 59 2 C59.39764263 3.98821313 59.73775349 5.98944339 60 8 C62.31 8.66 64.62 9.32 67 10 C67.495 12.97 67.495 12.97 68 16 C69.134375 16.309375 70.26875 16.61875 71.4375 16.9375 C75 18 75 18 76 19 C76.10062747 22.00813486 76.1361474 24.99335029 76.12939453 28.00195312 C76.13202301 29.41890724 76.13202301 29.41890724 76.13470459 30.86448669 C76.1391248 34.0034262 76.13618452 37.14230987 76.1328125 40.28125 C76.13348549 42.45218924 76.13445547 44.6231284 76.13571167 46.79406738 C76.13718887 51.35051183 76.13503337 55.90693672 76.13037109 60.46337891 C76.1246738 66.31826586 76.12795268 72.17310698 76.13394356 78.02799225 C76.13754857 82.51280058 76.13641086 86.99759796 76.13381577 91.48240662 C76.13314633 93.64188136 76.1339755 95.80135709 76.13629532 97.96083069 C76.13882086 100.97326308 76.13498264 103.98562013 76.12939453 106.99804688 C76.13141876 107.89990219 76.13344299 108.80175751 76.13552856 109.73094177 C76.11426231 115.88573769 76.11426231 115.88573769 75 117 C72.67182036 117.36760731 70.3381615 117.70241581 68 118 C67.67 120.31 67.34 122.62 67 125 C63.535 125.495 63.535 125.495 60 126 C59.855625 127.134375 59.71125 128.26875 59.5625 129.4375 C59 133 59 133 58 134 C56.18944975 134.09376053 54.37522799 134.1174411 52.56225586 134.11352539 C51.40112778 134.11344986 50.23999969 134.11337433 49.04368591 134.11329651 C47.14840904 134.10555458 47.14840904 134.10555458 45.21484375 134.09765625 C43.92888809 134.0962413 42.64293243 134.09482635 41.31800842 134.09336853 C37.89356557 134.08954418 34.46916491 134.07971462 31.04473877 134.06866455 C27.55261811 134.05844864 24.06049066 134.05387053 20.56835938 134.04882812 C13.71222222 134.03809227 6.85611313 134.02101684 0 134 C-0.17378174 133.43990234 -0.34756348 132.87980469 -0.52661133 132.30273438 C-0.7717749 131.57376953 -1.01693848 130.84480469 -1.26953125 130.09375 C-1.50518799 129.36865234 -1.74084473 128.64355469 -1.98364258 127.89648438 C-2.98122526 125.55032379 -2.98122526 125.55032379 -6.6875 124.5 C-7.780625 124.335 -8.87375 124.17 -10 124 C-10.495 121.03 -10.495 121.03 -11 118 C-12.7015625 117.5359375 -12.7015625 117.5359375 -14.4375 117.0625 C-18 116 -18 116 -19 115 C-19.10594305 112.02775517 -19.14677588 109.07862066 -19.14526367 106.10571289 C-19.14862228 105.17243668 -19.1519809 104.23916046 -19.15544128 103.27760315 C-19.16498212 100.17594084 -19.16689595 97.07433234 -19.16796875 93.97265625 C-19.17117911 91.82653277 -19.17454301 89.68040951 -19.17805481 87.5342865 C-19.1840539 83.02911878 -19.18589391 78.52397026 -19.18530273 74.01879883 C-19.18520106 68.2334779 -19.19885555 62.44827956 -19.21607494 56.66298771 C-19.22716944 52.22874888 -19.22922273 47.79453992 -19.22869301 43.36028862 C-19.2298769 41.22675593 -19.23432138 39.09322256 -19.24202538 36.95970345 C-19.25177412 33.98094108 -19.24896758 31.00244793 -19.24291992 28.02368164 C-19.24853943 27.13477234 -19.25415894 26.24586304 -19.25994873 25.33001709 C-19.2283152 19.2283152 -19.2283152 19.2283152 -17 17 C-15.01178687 16.60235737 -13.01055661 16.26224651 -11 16 C-10.814375 14.88625 -10.62875 13.7725 -10.4375 12.625 C-9.963125 11.42875 -9.48875 10.2325 -9 9 C-6.66666667 8.33333333 -4.33333333 7.66666667 -2 7 C-0.73014958 3.49353227 -0.73014958 3.49353227 0 0 Z " fill="#FCFCFC" transform="translate(1609,30)"/>
<path d="M0 0 C1.31016083 0.00444122 2.62032166 0.00888245 3.97018433 0.01345825 C4.6922406 0.0131662 5.41429687 0.01287415 6.15823364 0.01257324 C8.54993621 0.01396895 10.94132901 0.0295412 13.33297729 0.04519653 C14.98921539 0.04892581 16.64545569 0.05177319 18.30169678 0.05377197 C22.6648872 0.06141514 27.02794486 0.08106944 31.39108276 0.10317993 C35.84174809 0.12362368 40.29243482 0.13277054 44.74313354 0.14285278 C53.47887161 0.16431474 62.2145017 0.19845885 70.95016479 0.24050903 C71.2108374 1.08065552 71.2108374 1.08065552 71.47677612 1.93777466 C71.7219397 2.6667395 71.96710327 3.39570435 72.21969604 4.14675903 C72.45535278 4.87185669 72.69100952 5.59695435 72.93380737 6.34402466 C73.93139005 8.69018524 73.93139005 8.69018524 77.63766479 9.74050903 C78.73078979 9.90550903 79.82391479 10.07050903 80.95016479 10.24050903 C81.44516479 13.21050903 81.44516479 13.21050903 81.95016479 16.24050903 C83.08453979 16.54988403 84.21891479 16.85925903 85.38766479 17.17800903 C88.95016479 18.24050903 88.95016479 18.24050903 89.95016479 19.24050903 C90.05123353 22.1131496 90.08986151 24.96124532 90.08297729 27.83425903 C90.08393402 28.69611816 90.08489075 29.55797729 90.08587646 30.44595337 C90.08655829 32.27184115 90.08470384 34.09773135 90.08053589 35.9236145 C90.07518766 38.72851982 90.08048079 41.53326499 90.08688354 44.33816528 C90.08622276 46.10769689 90.0849416 47.87722839 90.08297729 49.64675903 C90.08500153 50.49153809 90.08702576 51.33631714 90.08911133 52.20669556 C90.06511511 58.12555872 90.06511511 58.12555872 88.95016479 59.24050903 C86.62198516 59.60811634 84.2883263 59.94292484 81.95016479 60.24050903 C81.80578979 61.37488403 81.66141479 62.50925903 81.51266479 63.67800903 C80.95016479 67.24050903 80.95016479 67.24050903 79.95016479 68.24050903 C78.4614462 68.32720335 76.9687198 68.34754397 75.47750854 68.33816528 C74.57838745 68.33494263 73.67926636 68.33171997 72.75289917 68.32839966 C71.33460815 68.3158313 71.33460815 68.3158313 69.88766479 68.30300903 C68.463573 68.29624146 68.463573 68.29624146 67.01071167 68.28933716 C64.65713414 68.27751014 62.30368002 68.26102929 59.95016479 68.24050903 C59.95016479 70.88050903 59.95016479 73.52050903 59.95016479 76.24050903 C60.55078735 76.23527222 61.15140991 76.2300354 61.77023315 76.22463989 C64.47603317 76.2039289 67.18181656 76.19086778 69.88766479 76.17800903 C70.83319214 76.16963013 71.77871948 76.16125122 72.75289917 76.15261841 C74.10158081 76.14778442 74.10158081 76.14778442 75.47750854 76.14285278 C76.72648926 76.13499756 76.72648926 76.13499756 78.0007019 76.12698364 C79.95016479 76.24050903 79.95016479 76.24050903 80.95016479 77.24050903 C81.31777211 79.56868867 81.6525806 81.90234753 81.95016479 84.24050903 C83.08453979 84.38488403 84.21891479 84.52925903 85.38766479 84.67800903 C88.95016479 85.24050903 88.95016479 85.24050903 89.95016479 86.24050903 C90.05348406 87.67241764 90.08866365 89.10933707 90.09542847 90.54495239 C90.10180832 91.45937607 90.10818817 92.37379974 90.11476135 93.31593323 C90.11587418 94.31069168 90.116987 95.30545013 90.11813354 96.33035278 C90.12312614 97.85264244 90.12312614 97.85264244 90.1282196 99.40568542 C90.1332933 101.55692083 90.13562779 103.70816414 90.13546753 105.85940552 C90.13765314 109.16039939 90.15580187 112.46105879 90.17477417 115.76199341 C90.1777081 117.84727872 90.1796929 119.93256562 90.18063354 122.01785278 C90.18781906 123.01058701 90.19500458 124.00332123 90.20240784 125.02613831 C90.19933121 125.94371414 90.19625458 126.86128998 90.19308472 127.80667114 C90.19450974 128.61639877 90.19593475 129.4261264 90.19740295 130.26039124 C89.95016479 132.24050903 89.95016479 132.24050903 87.95016479 134.24050903 C85.2370583 134.42796414 82.62787394 134.49616309 79.91500854 134.47097778 C78.72422447 134.47029045 78.72422447 134.47029045 77.50938416 134.46958923 C75.83069362 134.46656668 74.1520059 134.45868028 72.47335815 134.44631958 C69.89456321 134.42805788 67.31612703 134.4258099 64.73727417 134.42605591 C63.10901584 134.42114099 61.48075995 134.41531279 59.85250854 134.40847778 C58.68847755 134.40680855 58.68847755 134.40680855 57.50093079 134.40510559 C52.06621487 134.3565591 52.06621487 134.3565591 50.95016479 133.24050903 C50.82783835 131.76800259 50.7724192 130.28985192 50.74484253 128.81253052 C50.7149247 127.4011808 50.7149247 127.4011808 50.68440247 125.96131897 C50.65933372 124.42695946 50.65933372 124.42695946 50.63375854 122.86160278 C50.61297745 121.81980362 50.59219635 120.77800446 50.57078552 119.70463562 C50.50517422 116.36249656 50.44635149 113.02027618 50.38766479 109.67800903 C50.34449058 107.41823485 50.30087666 105.15846902 50.25680542 102.89871216 C50.14948113 97.34606483 50.04773668 91.79333583 49.95016479 86.24050903 C48.82481323 85.98527466 47.69946167 85.73004028 46.54000854 85.46707153 C45.35536011 85.06230591 44.17071167 84.65754028 42.95016479 84.24050903 C41.51266479 80.61550903 41.51266479 80.61550903 40.95016479 77.24050903 C38.97016479 77.24050903 36.99016479 77.24050903 34.95016479 77.24050903 C34.93985733 77.93986069 34.92954987 78.63921234 34.91893005 79.35975647 C34.82111447 85.93764567 34.71862322 92.51544324 34.61082554 99.09317684 C34.55556678 102.47518026 34.50214224 105.85719227 34.45285034 109.23928833 C34.39615533 113.12390331 34.33158895 117.00836781 34.26657104 120.89285278 C34.2415023 122.72250832 34.2415023 122.72250832 34.21592712 124.58912659 C34.1959819 125.71021317 34.17603668 126.83129974 34.15548706 127.98635864 C34.13994278 128.97897202 34.1243985 129.97158539 34.10838318 130.99427795 C33.95016479 133.24050903 33.95016479 133.24050903 32.95016479 134.24050903 C30.22292201 134.34150391 27.52153956 134.38021432 24.79391479 134.37332153 C23.56771423 134.37475662 23.56771423 134.37475662 22.31674194 134.3762207 C20.58501102 134.37690249 18.85327756 134.37504833 17.12155151 134.37088013 C14.46149997 134.36553182 11.80161729 134.37082515 9.14157104 134.37722778 C7.46318525 134.376567 5.78479957 134.37528584 4.10641479 134.37332153 C3.3053833 134.37534576 2.50435181 134.37737 1.67904663 134.37945557 C-3.93488442 134.35545982 -3.93488442 134.35545982 -5.04983521 133.24050903 C-5.15038125 131.54955492 -5.18059866 129.85438436 -5.18354797 128.16044617 C-5.18781296 127.05970764 -5.19207794 125.95896912 -5.19647217 124.82487488 C-5.19601898 123.6066655 -5.1955658 122.38845612 -5.19509888 121.1333313 C-5.2001368 119.22135452 -5.2001368 119.22135452 -5.20527649 117.27075195 C-5.21413686 113.76458559 -5.21645546 110.2584436 -5.21709228 106.75226712 C-5.21803971 103.8296568 -5.2217161 100.90705221 -5.22526437 97.98444408 C-5.23341669 91.09152465 -5.2358479 84.19861828 -5.23513794 77.30569458 C-5.23453695 70.18533518 -5.24509113 63.0650515 -5.2608816 55.94471127 C-5.27393889 49.84024814 -5.2793226 43.73580981 -5.27868253 37.63133281 C-5.278427 33.98155144 -5.28130803 30.3318373 -5.29186058 26.68206978 C-5.30330159 22.61368727 -5.29880589 18.54547536 -5.29275513 14.4770813 C-5.29837463 13.26089615 -5.30399414 12.044711 -5.30978394 10.79167175 C-5.30558945 9.6881134 -5.30139496 8.58455505 -5.29707336 7.44755554 C-5.29761813 6.4846589 -5.2981629 5.52176226 -5.29872417 4.52968693 C-4.89135324 0.78285743 -3.6344218 0.28660935 0 0 Z " fill="#55B6BF" transform="translate(185.04983520507813,29.759490966796875)"/>
<path d="M0 0 C0.97448593 -0.00637985 1.94897186 -0.0127597 2.95298767 -0.01933289 C4.54355736 -0.02100212 4.54355736 -0.02100212 6.16625977 -0.02270508 C7.24770767 -0.02603348 8.32915558 -0.02936188 9.44337463 -0.03279114 C11.73584567 -0.0378651 14.02832413 -0.04019932 16.32080078 -0.04003906 C19.83907168 -0.04222478 23.35702883 -0.06037361 26.87524414 -0.0793457 C29.09724827 -0.0822796 31.3192539 -0.08426442 33.54125977 -0.08520508 C34.59961533 -0.09239059 35.65797089 -0.09957611 36.74839783 -0.10697937 C37.72603592 -0.10390274 38.70367401 -0.10082611 39.7109375 -0.09765625 C41.00547096 -0.09979378 41.00547096 -0.09979378 42.32615662 -0.10197449 C44.42016602 0.14526367 44.42016602 0.14526367 46.42016602 2.14526367 C46.81780864 4.1334768 47.1579195 6.13470706 47.42016602 8.14526367 C49.73016602 8.80526367 52.04016602 9.46526367 54.42016602 10.14526367 C54.44349518 26.16519904 54.46114528 42.18512893 54.47197819 58.20507717 C54.47714111 65.64290878 54.48418373 73.08072984 54.49560547 80.51855469 C54.50555243 86.99907709 54.51201947 93.47959187 54.51425451 99.96012169 C54.5155616 103.3935691 54.51864732 106.82699467 54.52589607 110.2604351 C54.53391018 114.08720188 54.53415715 117.91394702 54.53369141 121.74072266 C54.53728668 122.88726822 54.54088196 124.03381378 54.54458618 125.21510315 C54.54321152 126.25141876 54.54183685 127.28773438 54.54042053 128.35545349 C54.54134233 129.26157599 54.54226412 130.1676985 54.54321384 131.10127926 C54.42016602 133.14526367 54.42016602 133.14526367 53.42016602 134.14526367 C50.76560408 134.24621931 48.13761426 134.28497366 45.48266602 134.27807617 C44.28975952 134.27951126 44.28975952 134.27951126 43.07275391 134.28097534 C41.38810141 134.2816571 39.7034463 134.2798031 38.01879883 134.27563477 C35.43117405 134.27028642 32.84372286 134.27557986 30.25610352 134.28198242 C28.62329063 134.28132164 26.99047785 134.28004048 25.35766602 134.27807617 C24.5785083 134.2801004 23.79935059 134.28212463 22.99658203 134.28421021 C17.53511706 134.26021472 17.53511706 134.26021472 16.42016602 133.14526367 C16.30293311 131.64721413 16.2529235 130.14382296 16.23071289 128.64135742 C16.21399536 127.68366455 16.19727783 126.72597168 16.18005371 125.73925781 C16.16647827 124.69761475 16.15290283 123.65597168 16.13891602 122.58276367 C16.12050659 121.52114014 16.10209717 120.4595166 16.08312988 119.36572266 C16.00414055 114.80178292 15.93660616 110.23768851 15.86791992 105.67358398 C15.81632404 102.35156648 15.7590208 99.0296815 15.70141602 95.70776367 C15.68784058 94.66612061 15.67426514 93.62447754 15.66027832 92.55126953 C15.64356079 91.59357666 15.62684326 90.63588379 15.60961914 89.64916992 C15.59709106 88.80169189 15.58456299 87.95421387 15.57165527 87.08105469 C15.63060954 85.13911251 15.63060954 85.13911251 14.42016602 84.14526367 C12.42058238 84.10445584 10.41971348 84.10272011 8.42016602 84.14526367 C8.27579102 85.27963867 8.13141602 86.41401367 7.98266602 87.58276367 C7.42016602 91.14526367 7.42016602 91.14526367 6.42016602 92.14526367 C4.08719168 92.18619305 1.75311377 92.1876809 -0.57983398 92.14526367 C-0.56412354 93.94713135 -0.56412354 93.94713135 -0.5480957 95.78540039 C-0.51196111 100.23198479 -0.48895742 104.67855615 -0.4699707 109.12524414 C-0.45989816 111.05169861 -0.44623955 112.97813775 -0.42895508 114.90454102 C-0.40476157 117.66971619 -0.39336363 120.43468967 -0.38452148 123.19995117 C-0.37419891 124.06457977 -0.36387634 124.92920837 -0.35324097 125.82003784 C-0.35284292 127.92979888 -0.45718155 130.03907086 -0.57983398 132.14526367 C-3.1341715 134.69960118 -4.78717282 134.3825716 -8.26954651 134.39750671 C-9.04354294 134.3903212 -9.81753937 134.38313568 -10.61499023 134.37573242 C-11.80577431 134.37504509 -11.80577431 134.37504509 -13.02061462 134.37434387 C-14.69930516 134.37132132 -16.37799288 134.36343492 -18.05664062 134.35107422 C-20.63543557 134.33281252 -23.21387175 134.33056454 -25.79272461 134.33081055 C-27.42098294 134.32589563 -29.04923883 134.32006743 -30.67749023 134.31323242 C-31.84152122 134.31156319 -31.84152122 134.31156319 -33.02906799 134.30986023 C-38.46378391 134.26131374 -38.46378391 134.26131374 -39.57983398 133.14526367 C-39.68579266 130.14249674 -39.72660952 127.16260471 -39.72509766 124.15917969 C-39.72845627 123.2161499 -39.73181488 122.27312012 -39.73527527 121.30151367 C-39.74481623 118.16738589 -39.74672994 115.03331135 -39.74780273 111.89916992 C-39.75101308 109.73062619 -39.75437698 107.56208269 -39.75788879 105.39353943 C-39.76388791 100.84129331 -39.76572789 96.2890662 -39.76513672 91.73681641 C-39.76503504 85.89096184 -39.77868959 80.04522859 -39.79590893 74.19940281 C-39.80700327 69.7188409 -39.80905672 65.23830855 -39.80852699 60.7577343 C-39.8097109 58.60187296 -39.8141555 56.44601094 -39.82185936 54.29016304 C-39.8316078 51.28026856 -39.82880168 48.27064054 -39.82275391 45.26074219 C-39.82837341 44.36248215 -39.83399292 43.46422211 -39.83978271 42.53874207 C-39.80814916 36.37357885 -39.80814916 36.37357885 -37.57983398 34.14526367 C-34.89144014 33.87534461 -32.28841462 34.0578901 -29.57983398 34.14526367 C-29.57983398 31.83526367 -29.57983398 29.52526367 -29.57983398 27.14526367 C-22.82983398 25.14526367 -22.82983398 25.14526367 -20.57983398 25.14526367 C-20.61077148 23.44370117 -20.61077148 23.44370117 -20.64233398 21.70776367 C-20.57983398 18.14526367 -20.57983398 18.14526367 -19.57983398 17.14526367 C-17.24685965 17.1043343 -14.91278174 17.10284644 -12.57983398 17.14526367 C-12.57983398 14.83526367 -12.57983398 12.52526367 -12.57983398 10.14526367 C-10.59983398 9.48526367 -8.61983398 8.82526367 -6.57983398 8.14526367 C-6.43545898 7.01088867 -6.29108398 5.87651367 -6.14233398 4.70776367 C-5.34390619 -0.34894572 -4.74516358 0.02097778 0 0 Z " fill="#56B7C0" transform="translate(510.579833984375,29.854736328125)"/>
<path d="M0 0 C1.50046875 0.00386719 1.50046875 0.00386719 3.03125 0.0078125 C4.0315625 0.00523438 5.031875 0.00265625 6.0625 0 C8.53125 0.1328125 8.53125 0.1328125 9.53125 1.1328125 C9.89885731 3.46099214 10.23366581 5.794651 10.53125 8.1328125 C11.665625 8.2771875 12.8 8.4215625 13.96875 8.5703125 C17.53125 9.1328125 17.53125 9.1328125 18.53125 10.1328125 C18.57217937 12.46578683 18.57366723 14.79986475 18.53125 17.1328125 C19.665625 17.1121875 20.8 17.0915625 21.96875 17.0703125 C25.53125 17.1328125 25.53125 17.1328125 26.53125 18.1328125 C26.89885731 20.46099214 27.23366581 22.794651 27.53125 25.1328125 C29.2328125 25.349375 29.2328125 25.349375 30.96875 25.5703125 C34.53125 26.1328125 34.53125 26.1328125 35.53125 27.1328125 C35.89885731 29.46099214 36.23366581 31.794651 36.53125 34.1328125 C38.84125 34.4628125 41.15125 34.7928125 43.53125 35.1328125 C44.02625 38.5978125 44.02625 38.5978125 44.53125 42.1328125 C45.665625 42.2771875 46.8 42.4215625 47.96875 42.5703125 C51.53125 43.1328125 51.53125 43.1328125 52.53125 44.1328125 C52.89885731 46.46099214 53.23366581 48.794651 53.53125 51.1328125 C55.51125 51.1328125 57.49125 51.1328125 59.53125 51.1328125 C59.67820312 50.56691406 59.82515625 50.00101563 59.9765625 49.41796875 C60.66744834 47.15869265 61.34873922 45.18163155 62.53125 43.1328125 C65.71875 42.1328125 65.71875 42.1328125 68.53125 42.1328125 C68.8096875 40.4621875 68.8096875 40.4621875 69.09375 38.7578125 C69.568125 37.5615625 70.0425 36.3653125 70.53125 35.1328125 C72.86458333 34.46614583 75.19791667 33.79947917 77.53125 33.1328125 C79.07211322 29.61880582 79.07211322 29.61880582 79.53125 26.1328125 C81.51125 25.8028125 83.49125 25.4728125 85.53125 25.1328125 C85.8096875 23.4621875 85.8096875 23.4621875 86.09375 21.7578125 C86.568125 20.5615625 87.0425 19.3653125 87.53125 18.1328125 C89.86458333 17.46614583 92.19791667 16.79947917 94.53125 16.1328125 C94.86125 14.9778125 95.19125 13.8228125 95.53125 12.6328125 C95.86125 11.4778125 96.19125 10.3228125 96.53125 9.1328125 C98.86458333 8.46614583 101.19791667 7.79947917 103.53125 7.1328125 C105.07211322 3.61880582 105.07211322 3.61880582 105.53125 0.1328125 C107.17699566 0.10593099 108.82286413 0.08647127 110.46875 0.0703125 C111.38527344 0.05871094 112.30179688 0.04710938 113.24609375 0.03515625 C115.53125 0.1328125 115.53125 0.1328125 116.53125 1.1328125 C116.62964707 2.83875341 116.65757028 4.54879221 116.65823364 6.25756836 C116.66246338 7.92346512 116.66246338 7.92346512 116.66677856 9.62301636 C116.66374222 11.4667131 116.66374222 11.4667131 116.66064453 13.34765625 C116.66327301 15.27667282 116.66327301 15.27667282 116.66595459 17.24465942 C116.67052853 20.78175414 116.66873953 24.31881982 116.6655755 27.85591507 C116.6630517 31.54969616 116.6653895 35.24347468 116.66696167 38.93725586 C116.66878331 45.14144337 116.66637721 51.34561898 116.66162109 57.54980469 C116.65617848 64.73264614 116.65794114 71.91545921 116.6634475 79.09829998 C116.6679788 85.25455055 116.6686291 91.41079256 116.66600883 97.56704426 C116.66444615 101.24862954 116.66425205 104.93020146 116.66754532 108.61178589 C116.67095812 112.71386407 116.66623402 116.81589297 116.66064453 120.91796875 C116.66266876 122.14709991 116.66469299 123.37623108 116.66677856 124.64260864 C116.66395874 125.75320648 116.66113892 126.86380432 116.65823364 128.00805664 C116.6576681 129.46484581 116.6576681 129.46484581 116.65709114 130.95106506 C116.53125 133.1328125 116.53125 133.1328125 115.53125 134.1328125 C112.87668807 134.23376814 110.24869824 134.27252248 107.59375 134.265625 C106.40084351 134.26706009 106.40084351 134.26706009 105.18383789 134.26852417 C103.4991854 134.26920593 101.81453029 134.26735193 100.12988281 134.26318359 C97.54225803 134.25783525 94.95480684 134.26312869 92.3671875 134.26953125 C90.73437461 134.26887047 89.10156184 134.2675893 87.46875 134.265625 C86.68959229 134.26764923 85.91043457 134.26967346 85.10766602 134.27175903 C79.64620105 134.24776355 79.64620105 134.24776355 78.53125 133.1328125 C78.40627385 130.63882185 78.3452212 128.17112921 78.32592773 125.67553711 C78.31602814 124.89510544 78.30612854 124.11467377 78.29592896 123.31059265 C78.26422225 120.71881187 78.2395205 118.12701273 78.21484375 115.53515625 C78.19428213 113.74296072 78.17328587 111.95077013 78.15187073 110.15858459 C78.09656824 105.4321593 78.04719517 100.70568965 77.99902344 95.97918701 C77.94886795 91.15991245 77.89315089 86.34070262 77.83789062 81.52148438 C77.73020911 72.05864899 77.62878649 62.59575751 77.53125 53.1328125 C75.22125 53.1328125 72.91125 53.1328125 70.53125 53.1328125 C69.87125 55.4428125 69.21125 57.7528125 68.53125 60.1328125 C66.55125 60.4628125 64.57125 60.7928125 62.53125 61.1328125 C62.0671875 62.834375 62.0671875 62.834375 61.59375 64.5703125 C60.53125 68.1328125 60.53125 68.1328125 59.53125 69.1328125 C56.53125 69.2578125 56.53125 69.2578125 53.53125 69.1328125 C51.56302114 67.16458364 51.86876619 63.78472541 51.53125 61.1328125 C50.396875 60.9884375 49.2625 60.8440625 48.09375 60.6953125 C44.53125 60.1328125 44.53125 60.1328125 43.53125 59.1328125 C43.49032063 56.79983817 43.48883277 54.46576025 43.53125 52.1328125 C40.06625 52.6278125 40.06625 52.6278125 36.53125 53.1328125 C36.52094254 54.13283798 36.51063507 55.13286346 36.50001526 56.16319275 C36.40245196 65.56656023 36.29973454 74.969859 36.19191074 84.37311459 C36.13663873 89.20794787 36.08321203 94.04278715 36.03393555 98.87768555 C35.98635493 103.53963734 35.93401467 108.20151317 35.87830925 112.86337471 C35.85785704 114.64603355 35.8391488 116.42871325 35.82217598 118.21140862 C35.79819514 120.69952851 35.7681324 123.18750348 35.73657227 125.67553711 C35.7308168 126.42000092 35.72506134 127.16446472 35.71913147 127.93148804 C35.64530216 133.01876034 35.64530216 133.01876034 34.53125 134.1328125 C31.80400721 134.23380738 29.10262477 134.27251779 26.375 134.265625 C25.14879944 134.26706009 25.14879944 134.26706009 23.89782715 134.26852417 C22.16609622 134.26920595 20.43436276 134.26735179 18.70263672 134.26318359 C16.04258518 134.25783529 13.3827025 134.26312862 10.72265625 134.26953125 C9.04427046 134.26887047 7.36588477 134.2675893 5.6875 134.265625 C4.88646851 134.26764923 4.08543701 134.26967346 3.26013184 134.27175903 C-2.35379921 134.24776329 -2.35379921 134.24776329 -3.46875 133.1328125 C-3.56714707 131.42687159 -3.59507028 129.71683279 -3.59573364 128.00805664 C-3.59855347 126.8974588 -3.60137329 125.78686096 -3.60427856 124.64260864 C-3.60225433 123.41347748 -3.6002301 122.18434631 -3.59814453 120.91796875 C-3.59989685 119.6319577 -3.60164917 118.34594666 -3.60345459 117.02096558 C-3.60802853 113.48387086 -3.60623953 109.94680518 -3.6030755 106.40970993 C-3.6005517 102.71592884 -3.6028895 99.02215032 -3.60446167 95.32836914 C-3.60628331 89.12418163 -3.60387721 82.92000602 -3.59912109 76.71582031 C-3.59367848 69.53297886 -3.59544114 62.35016579 -3.6009475 55.16732502 C-3.6054788 49.01107445 -3.6061291 42.85483244 -3.60350883 36.69858074 C-3.60194615 33.01699546 -3.60175205 29.33542354 -3.60504532 25.65383911 C-3.60845812 21.55176093 -3.60373402 17.44973203 -3.59814453 13.34765625 C-3.60016876 12.11852509 -3.60219299 10.88939392 -3.60427856 9.62301636 C-3.60145874 8.51241852 -3.59863892 7.40182068 -3.59573364 6.25756836 C-3.59535662 5.28637558 -3.59497959 4.3151828 -3.59459114 3.31455994 C-3.41435375 0.18972764 -3.13960219 0.16890265 0 0 Z " fill="#56B7C0" transform="translate(625.46875,29.8671875)"/>
<path d="M0 0 C1.0442086 0.00303635 1.0442086 0.00303635 2.10951233 0.00613403 C2.83956985 0.00438171 3.56962738 0.00262939 4.32180786 0.00082397 C6.74650924 -0.00359443 9.17113828 -0.00065661 11.59584045 0.00271606 C13.27353428 0.00204302 14.95122802 0.00107299 16.62892151 -0.00018311 C20.14964219 -0.00166006 23.67033755 0.0004944 27.1910553 0.00515747 C31.71419541 0.01085476 36.23727619 0.00757574 40.76041412 0.00158501 C44.22611441 -0.00202067 47.69180052 -0.00088199 51.15750122 0.0017128 C52.8257447 0.00238205 54.49398945 0.00155371 56.16223145 -0.00076675 C58.48974539 -0.00329339 60.81716193 0.00054744 63.14466858 0.00613403 C63.84080765 0.0041098 64.53694672 0.00208557 65.25418091 0 C70.01282772 0.02126583 70.01282772 0.02126583 71.12709045 1.13552856 C71.49469777 3.4637082 71.82950626 5.79736706 72.12709045 8.13552856 C73.26146545 8.27990356 74.39584045 8.42427856 75.56459045 8.57302856 C79.12709045 9.13552856 79.12709045 9.13552856 80.12709045 10.13552856 C80.16801983 12.4685029 80.16950769 14.80258081 80.12709045 17.13552856 C81.26146545 17.11490356 82.39584045 17.09427856 83.56459045 17.07302856 C87.12709045 17.13552856 87.12709045 17.13552856 88.12709045 18.13552856 C88.21987375 19.51712971 88.24456088 20.90340894 88.24061584 22.28811646 C88.24050255 23.60937279 88.24050255 23.60937279 88.24038696 24.95732117 C88.23522568 25.91460617 88.23006439 26.87189117 88.2247467 27.85818481 C88.22333176 28.83339584 88.22191681 29.80860687 88.22045898 30.81336975 C88.21484178 33.94161999 88.20228638 37.0697998 88.18959045 40.19802856 C88.18457767 42.31326191 88.18001438 44.42849637 88.17591858 46.54373169 C88.16486677 51.74102153 88.14811192 56.93827002 88.12709045 62.13552856 C87.57279358 62.27088013 87.0184967 62.40623169 86.44740295 62.54568481 C85.72294983 62.76095825 84.9984967 62.97623169 84.25209045 63.19802856 C83.17314514 63.49386841 83.17314514 63.49386841 82.07240295 63.79568481 C79.23597587 65.44524584 79.23597587 65.44524584 78.12709045 72.13552856 C64.76209045 72.63052856 64.76209045 72.63052856 51.12709045 73.13552856 C50.46709045 75.44552856 49.80709045 77.75552856 49.12709045 80.13552856 C47.13092492 82.1316941 43.31007082 81.54536284 40.56459045 81.69802856 C39.85367249 81.74121216 39.14275452 81.78439575 38.41029358 81.82888794 C36.64947134 81.93524633 34.88830726 82.03591702 33.12709045 82.13552856 C33.11678299 82.77223984 33.10647552 83.40895111 33.09585571 84.06495667 C32.98802715 90.66679654 32.87341085 97.26849335 32.754776 103.87014771 C32.71135102 106.33691425 32.66968174 108.80371234 32.629776 111.27053833 C32.572256 114.80766323 32.50850971 118.34462822 32.4434967 121.88162231 C32.41842796 123.5472245 32.41842796 123.5472245 32.39285278 125.24647522 C32.37290756 126.26745804 32.35296234 127.28844086 32.33241272 128.34036255 C32.31686844 129.24415146 32.30132416 130.14794037 32.28530884 131.07911682 C32.12709045 133.13552856 32.12709045 133.13552856 31.12709045 134.13552856 C28.47252852 134.23648421 25.8445387 134.27523855 23.18959045 134.26834106 C21.99668396 134.26977615 21.99668396 134.26977615 20.77967834 134.27124023 C19.09502585 134.271922 17.41037074 134.27006799 15.72572327 134.26589966 C13.13809849 134.26055132 10.5506473 134.26584475 7.96302795 134.27224731 C6.33021507 134.27158653 4.69740229 134.27030537 3.06459045 134.26834106 C2.28543274 134.2703653 1.50627502 134.27238953 0.70350647 134.2744751 C-4.7579585 134.25047961 -4.7579585 134.25047961 -5.87290955 133.13552856 C-5.97130661 131.42958765 -5.99922983 129.71954886 -5.99989319 128.01077271 C-6.00271301 126.90017487 -6.00553284 125.78957703 -6.00843811 124.64532471 C-6.00641388 123.41619354 -6.00438965 122.18706238 -6.00230408 120.92068481 C-6.0040564 119.63467377 -6.00580872 118.34866272 -6.00761414 117.02368164 C-6.01218808 113.48658692 -6.01039907 109.94952125 -6.00723505 106.41242599 C-6.00471125 102.71864491 -6.00704904 99.02486638 -6.00862122 95.33108521 C-6.01044285 89.1268977 -6.00803676 82.92272208 -6.00328064 76.71853638 C-5.99783803 69.53569492 -5.99960069 62.35288185 -6.00510705 55.17004108 C-6.00963835 49.01379051 -6.01028864 42.85754851 -6.00766838 36.70129681 C-6.00610569 33.01971153 -6.00591159 29.33813961 -6.00920486 25.65655518 C-6.01261767 21.55447699 -6.00789357 17.45244809 -6.00230408 13.35037231 C-6.00432831 12.12124115 -6.00635254 10.89210999 -6.00843811 9.62573242 C-6.00561829 8.51513458 -6.00279846 7.40453674 -5.99989319 6.26028442 C-5.99951616 5.28909164 -5.99913914 4.31789886 -5.99875069 3.317276 C-5.76146069 -0.7966953 -3.59587003 0.01606952 0 0 Z " fill="#FDFDFD" transform="translate(1315.8729095458984,29.864471435546875)"/>
<path d="M0 0 C1.17044357 0.00303635 1.17044357 0.00303635 2.36453247 0.00613403 C3.59129196 0.00350555 3.59129196 0.00350555 4.84283447 0.00082397 C7.55972383 -0.00359528 10.27654865 -0.0006563 12.99343872 0.00271606 C14.87291476 0.00204305 16.75239071 0.00107304 18.63186646 -0.00018311 C22.57629218 -0.00166018 26.5206953 0.00049478 30.46511841 0.00515747 C35.53306375 0.01085476 40.60095614 0.00757581 45.66889954 0.00158501 C49.55150759 -0.00202035 53.434103 -0.00088214 57.31671143 0.0017128 C59.18591315 0.00238214 61.055116 0.00155341 62.92431641 -0.00076675 C65.53202376 -0.00329287 68.13964413 0.00054672 70.74734497 0.00613403 C71.52764069 0.0041098 72.3079364 0.00208557 73.11187744 0 C78.44167619 0.02126603 78.44167619 0.02126603 79.55593872 1.13552856 C79.6569336 3.86277135 79.69564401 6.5641538 79.68875122 9.29177856 C79.68970795 10.10924561 79.69066467 10.92671265 79.69165039 11.76895142 C79.69233217 13.50068234 79.69047801 15.2324158 79.68630981 16.96414185 C79.68096151 19.62419339 79.68625484 22.28407606 79.69265747 24.94412231 C79.69199669 26.62250811 79.69071553 28.30089379 79.68875122 29.97927856 C79.69077545 30.78031006 79.69279968 31.58134155 79.69488525 32.40664673 C79.67088951 38.02057778 79.67088951 38.02057778 78.55593872 39.13552856 C76.49538562 39.23546388 74.43141282 39.26633762 72.36843872 39.26834106 C71.11289185 39.26963013 69.85734497 39.27091919 68.56375122 39.27224731 C67.90665161 39.27015259 67.249552 39.26805786 66.57254028 39.26589966 C64.56432537 39.2605509 62.55633413 39.26584547 60.54812622 39.27224731 C58.66480591 39.27031372 58.66480591 39.27031372 56.74343872 39.26834106 C55.58199341 39.26721313 54.4205481 39.26608521 53.22390747 39.2649231 C50.55593872 39.13552856 50.55593872 39.13552856 49.55593872 38.13552856 C49.18833141 35.80734893 48.85352291 33.47369007 48.55593872 31.13552856 C47.42156372 30.99115356 46.28718872 30.84677856 45.11843872 30.69802856 C41.55593872 30.13552856 41.55593872 30.13552856 40.55593872 29.13552856 C40.39973317 27.72224909 40.30537699 26.30198267 40.23953247 24.88162231 C40.19763794 24.02761841 40.15574341 23.1736145 40.11257935 22.29373169 C40.07326294 21.39589966 40.03394653 20.49806763 39.99343872 19.57302856 C39.95025513 18.67132935 39.90707153 17.76963013 39.86257935 16.84060669 C39.7561573 14.60574372 39.65413885 12.37076548 39.55593872 10.13552856 C37.57593872 10.13552856 35.59593872 10.13552856 33.55593872 10.13552856 C33.55593872 25.97552856 33.55593872 41.81552856 33.55593872 58.13552856 C43.71289807 58.42485243 43.71289807 58.42485243 53.87014771 58.7036438 C55.12641968 58.74175171 56.38269165 58.77985962 57.67703247 58.81912231 C58.97052612 58.85578003 60.26401978 58.89243774 61.59671021 58.9302063 C64.55593872 59.13552856 64.55593872 59.13552856 65.55593872 60.13552856 C65.65568904 62.64688961 65.69476055 65.12456271 65.68093872 67.63552856 C65.68480591 68.33806763 65.6886731 69.04060669 65.69265747 69.76443481 C65.6825525 75.00891479 65.6825525 75.00891479 64.55593872 76.13552856 C62.26605091 76.29440949 59.97150431 76.3869093 57.67703247 76.45193481 C56.4207605 76.49004272 55.16448853 76.52815063 53.87014771 76.56741333 C52.26083374 76.61051636 50.65151978 76.65361938 48.99343872 76.69802856 C43.89906372 76.84240356 38.80468872 76.98677856 33.55593872 77.13552856 C33.22593872 92.97552856 32.89593872 108.81552856 32.55593872 125.13552856 C35.19593872 125.13552856 37.83593872 125.13552856 40.55593872 125.13552856 C40.5507019 124.53490601 40.54546509 123.93428345 40.54006958 123.31546021 C40.51935858 120.60966019 40.50629747 117.9038768 40.49343872 115.19802856 C40.48505981 114.25250122 40.47668091 113.30697388 40.4680481 112.33279419 C40.46482544 111.4336731 40.46160278 110.534552 40.45828247 109.60818481 C40.45304565 108.77553101 40.44780884 107.9428772 40.44241333 107.08499146 C40.55593872 105.13552856 40.55593872 105.13552856 41.55593872 104.13552856 C43.88411836 103.76792125 46.21777722 103.43311276 48.55593872 103.13552856 C48.70031372 102.00115356 48.84468872 100.86677856 48.99343872 99.69802856 C49.55593872 96.13552856 49.55593872 96.13552856 50.55593872 95.13552856 C52.61649182 95.03559325 54.68046462 95.00471951 56.74343872 95.00271606 C57.9989856 95.001427 59.25453247 95.00013794 60.54812622 94.99880981 C61.20522583 95.00090454 61.86232544 95.00299927 62.53933716 95.00515747 C64.54755207 95.01050623 66.55554331 95.00521165 68.56375122 94.99880981 C69.8192981 95.00009888 71.07484497 95.00138794 72.36843872 95.00271606 C73.52988403 95.00384399 74.69132935 95.00497192 75.88796997 95.00613403 C78.55593872 95.13552856 78.55593872 95.13552856 79.55593872 96.13552856 C79.6569336 98.86277135 79.69564401 101.5641538 79.68875122 104.29177856 C79.68970795 105.10924561 79.69066467 105.92671265 79.69165039 106.76895142 C79.69233217 108.50068234 79.69047801 110.2324158 79.68630981 111.96414185 C79.68096151 114.62419339 79.68625484 117.28407606 79.69265747 119.94412231 C79.69199669 121.62250811 79.69071553 123.30089379 79.68875122 124.97927856 C79.69077545 125.78031006 79.69279968 126.58134155 79.69488525 127.40664673 C79.67088951 133.02057778 79.67088951 133.02057778 78.55593872 134.13552856 C75.94443584 134.23594314 73.35935507 134.27169913 70.74734497 134.2649231 C69.52058548 134.26755157 69.52058548 134.26755157 68.26904297 134.27023315 C65.55215362 134.27465241 62.83532879 134.27171343 60.11843872 134.26834106 C58.23896268 134.26901408 56.35948673 134.26998409 54.48001099 134.27124023 C50.53558526 134.27271731 46.59118214 134.27056235 42.64675903 134.26589966 C37.57881369 134.26020237 32.5109213 134.26348132 27.44297791 134.26947212 C23.56036985 134.27307748 19.67777444 134.27193927 15.79516602 134.26934433 C13.92596429 134.26867499 12.05676144 134.26950372 10.18756104 134.27182388 C7.57985368 134.27435 4.97223331 134.27051041 2.36453247 134.2649231 C1.58423676 134.26694733 0.80394104 134.26897156 0 134.27105713 C-5.32979874 134.2497911 -5.32979874 134.2497911 -6.44406128 133.13552856 C-6.54245835 131.42958765 -6.57038156 129.71954886 -6.57104492 128.01077271 C-6.57386475 126.90017487 -6.57668457 125.78957703 -6.57958984 124.64532471 C-6.57756561 123.41619354 -6.57554138 122.18706238 -6.57345581 120.92068481 C-6.57520813 119.63467377 -6.57696045 118.34866272 -6.57876587 117.02368164 C-6.58333981 113.48658692 -6.58155081 109.94952125 -6.57838678 106.41242599 C-6.57586298 102.71864491 -6.57820078 99.02486638 -6.57977295 95.33108521 C-6.58159459 89.1268977 -6.57918849 82.92272208 -6.57443237 76.71853638 C-6.56898976 69.53569492 -6.57075242 62.35288185 -6.57625878 55.17004108 C-6.58079008 49.01379051 -6.58144037 42.85754851 -6.57882011 36.70129681 C-6.57725743 33.01971153 -6.57706332 29.33813961 -6.5803566 25.65655518 C-6.5837694 21.55447699 -6.5790453 17.45244809 -6.57345581 13.35037231 C-6.57548004 12.12124115 -6.57750427 10.89210999 -6.57958984 9.62573242 C-6.57677002 8.51513458 -6.5739502 7.40453674 -6.57104492 6.26028442 C-6.5706679 5.28909164 -6.57029087 4.31789886 -6.56990242 3.317276 C-6.32072648 -1.00276571 -3.71097013 0.01480686 0 0 Z " fill="#55B6BF" transform="translate(337.4440612792969,29.864471435546875)"/>
<path d="M0 0 C1.17044357 0.00303635 1.17044357 0.00303635 2.36453247 0.00613403 C3.59129196 0.00350555 3.59129196 0.00350555 4.84283447 0.00082397 C7.55972383 -0.00359528 10.27654865 -0.0006563 12.99343872 0.00271606 C14.87291476 0.00204305 16.75239071 0.00107304 18.63186646 -0.00018311 C22.57629218 -0.00166018 26.5206953 0.00049478 30.46511841 0.00515747 C35.53306375 0.01085476 40.60095614 0.00757581 45.66889954 0.00158501 C49.55150759 -0.00202035 53.434103 -0.00088214 57.31671143 0.0017128 C59.18591315 0.00238214 61.055116 0.00155341 62.92431641 -0.00076675 C65.53202376 -0.00329287 68.13964413 0.00054672 70.74734497 0.00613403 C71.52764069 0.0041098 72.3079364 0.00208557 73.11187744 0 C78.44167619 0.02126603 78.44167619 0.02126603 79.55593872 1.13552856 C79.6569336 3.86277135 79.69564401 6.5641538 79.68875122 9.29177856 C79.68970795 10.10924561 79.69066467 10.92671265 79.69165039 11.76895142 C79.69233217 13.50068234 79.69047801 15.2324158 79.68630981 16.96414185 C79.68096151 19.62419339 79.68625484 22.28407606 79.69265747 24.94412231 C79.69199669 26.62250811 79.69071553 28.30089379 79.68875122 29.97927856 C79.69077545 30.78031006 79.69279968 31.58134155 79.69488525 32.40664673 C79.67088951 38.02057778 79.67088951 38.02057778 78.55593872 39.13552856 C76.48331796 39.22319969 74.40773578 39.2424873 72.33328247 39.23318481 C71.07322388 39.22996216 69.81316528 39.2267395 68.5149231 39.22341919 C67.17442763 39.2150626 65.83393284 39.20659764 64.49343872 39.19802856 C63.1490393 39.19301517 61.80463812 39.18845198 60.4602356 39.18435669 C57.15875932 39.17252344 53.85737069 39.15603827 50.55593872 39.13552856 C50.35291138 38.30408325 50.35291138 38.30408325 50.14578247 37.45584106 C49.93050903 36.73138794 49.7152356 36.00693481 49.49343872 35.26052856 C49.19759888 34.18158325 49.19759888 34.18158325 48.89578247 33.08084106 C47.24622145 30.24441398 47.24622145 30.24441398 40.55593872 29.13552856 C40.22593872 22.86552856 39.89593872 16.59552856 39.55593872 10.13552856 C37.57593872 10.13552856 35.59593872 10.13552856 33.55593872 10.13552856 C33.55593872 25.97552856 33.55593872 41.81552856 33.55593872 58.13552856 C43.71289807 58.42485243 43.71289807 58.42485243 53.87014771 58.7036438 C55.12641968 58.74175171 56.38269165 58.77985962 57.67703247 58.81912231 C58.97052612 58.85578003 60.26401978 58.89243774 61.59671021 58.9302063 C64.55593872 59.13552856 64.55593872 59.13552856 65.55593872 60.13552856 C65.68151034 62.44546239 65.73169601 64.75971393 65.74343872 67.07302856 C65.75761841 68.340177 65.7717981 69.60732544 65.78640747 70.91287231 C65.55593872 74.13552856 65.55593872 74.13552856 63.55593872 76.13552856 C60.48318481 76.36257935 60.48318481 76.36257935 56.57937622 76.33084106 C55.32560181 76.32584595 54.07182739 76.32085083 52.78005981 76.31570435 C51.17984985 76.29749634 49.57963989 76.27928833 47.93093872 76.26052856 C42.85718872 76.21927856 37.78343872 76.17802856 32.55593872 76.13552856 C32.55593872 92.30552856 32.55593872 108.47552856 32.55593872 125.13552856 C34.86593872 124.80552856 37.17593872 124.47552856 39.55593872 124.13552856 C39.59352295 123.28003418 39.59352295 123.28003418 39.63186646 122.40725708 C39.74750421 119.837267 39.87037496 117.26767329 39.99343872 114.69802856 C40.03275513 113.80019653 40.07207153 112.9023645 40.11257935 111.97732544 C40.17542114 110.69631958 40.17542114 110.69631958 40.23953247 109.38943481 C40.27619019 108.59867554 40.3128479 107.80791626 40.35061646 106.99319458 C40.55593872 105.13552856 40.55593872 105.13552856 41.55593872 104.13552856 C43.88411836 103.76792125 46.21777722 103.43311276 48.55593872 103.13552856 C48.70031372 102.00115356 48.84468872 100.86677856 48.99343872 99.69802856 C49.55593872 96.13552856 49.55593872 96.13552856 50.55593872 95.13552856 C55.02925831 94.88172622 59.51377332 94.95030135 63.99343872 94.94802856 C65.25994263 94.93578247 66.52644653 94.92353638 67.83132935 94.91091919 C69.03853638 94.9089856 70.24574341 94.907052 71.48953247 94.90505981 C73.16100342 94.89889648 73.16100342 94.89889648 74.86624146 94.89260864 C77.55593872 95.13552856 77.55593872 95.13552856 79.55593872 97.13552856 C79.74339383 99.84863505 79.81159278 102.45781942 79.78640747 105.17068481 C79.78594925 105.96454086 79.78549103 106.75839691 79.78501892 107.5763092 C79.78199637 109.25499974 79.77410997 110.93368746 79.76174927 112.61233521 C79.74348757 115.19113015 79.74123959 117.76956633 79.7414856 120.34841919 C79.73657068 121.97667752 79.73074248 123.60493341 79.72390747 125.23318481 C79.72279465 126.00920547 79.72168182 126.78522614 79.72053528 127.58476257 C79.67198879 133.01947849 79.67198879 133.01947849 78.55593872 134.13552856 C75.94443584 134.23594314 73.35935507 134.27169913 70.74734497 134.2649231 C69.52058548 134.26755157 69.52058548 134.26755157 68.26904297 134.27023315 C65.55215362 134.27465241 62.83532879 134.27171343 60.11843872 134.26834106 C58.23896268 134.26901408 56.35948673 134.26998409 54.48001099 134.27124023 C50.53558526 134.27271731 46.59118214 134.27056235 42.64675903 134.26589966 C37.57881369 134.26020237 32.5109213 134.26348132 27.44297791 134.26947212 C23.56036985 134.27307748 19.67777444 134.27193927 15.79516602 134.26934433 C13.92596429 134.26867499 12.05676144 134.26950372 10.18756104 134.27182388 C7.57985368 134.27435 4.97223331 134.27051041 2.36453247 134.2649231 C1.58423676 134.26694733 0.80394104 134.26897156 0 134.27105713 C-5.32979874 134.2497911 -5.32979874 134.2497911 -6.44406128 133.13552856 C-6.54245835 131.42958765 -6.57038156 129.71954886 -6.57104492 128.01077271 C-6.57386475 126.90017487 -6.57668457 125.78957703 -6.57958984 124.64532471 C-6.57756561 123.41619354 -6.57554138 122.18706238 -6.57345581 120.92068481 C-6.57520813 119.63467377 -6.57696045 118.34866272 -6.57876587 117.02368164 C-6.58333981 113.48658692 -6.58155081 109.94952125 -6.57838678 106.41242599 C-6.57586298 102.71864491 -6.57820078 99.02486638 -6.57977295 95.33108521 C-6.58159459 89.1268977 -6.57918849 82.92272208 -6.57443237 76.71853638 C-6.56898976 69.53569492 -6.57075242 62.35288185 -6.57625878 55.17004108 C-6.58079008 49.01379051 -6.58144037 42.85754851 -6.57882011 36.70129681 C-6.57725743 33.01971153 -6.57706332 29.33813961 -6.5803566 25.65655518 C-6.5837694 21.55447699 -6.5790453 17.45244809 -6.57345581 13.35037231 C-6.57548004 12.12124115 -6.57750427 10.89210999 -6.57958984 9.62573242 C-6.57677002 8.51513458 -6.5739502 7.40453674 -6.57104492 6.26028442 C-6.5706679 5.28909164 -6.57029087 4.31789886 -6.56990242 3.317276 C-6.32072648 -1.00276571 -3.71097013 0.01480686 0 0 Z " fill="#FBFBFB" transform="translate(1176.4440612792969,29.864471435546875)"/>
<path d="M0 0 C1.1146312 -0.00637985 2.22926239 -0.0127597 3.37767029 -0.01933289 C5.19791466 -0.02100212 5.19791466 -0.02100212 7.05493164 -0.02270508 C8.91016197 -0.02769768 8.91016197 -0.02769768 10.8028717 -0.03279114 C13.42489244 -0.03786562 16.04691967 -0.0401993 18.66894531 -0.04003906 C21.36465131 -0.03995762 24.06018808 -0.0469229 26.75585938 -0.06054688 C30.62643688 -0.07878979 34.49681556 -0.08377219 38.36743164 -0.08520508 C39.57890366 -0.09239059 40.79037567 -0.09957611 42.03855896 -0.10697937 C43.15634232 -0.10390274 44.27412567 -0.10082611 45.42578125 -0.09765625 C46.41315781 -0.09908127 47.40053436 -0.10050629 48.41783142 -0.10197449 C50.77758789 0.14526367 50.77758789 0.14526367 52.77758789 2.14526367 C53.17523052 4.1334768 53.51534138 6.13470706 53.77758789 8.14526367 C54.70442383 8.20584961 55.63125977 8.26643555 56.58618164 8.32885742 C57.7837207 8.41264648 58.98125977 8.49643555 60.21508789 8.58276367 C61.41004883 8.66397461 62.60500977 8.74518555 63.83618164 8.82885742 C66.77758789 9.14526367 66.77758789 9.14526367 67.77758789 10.14526367 C67.87752321 12.20581677 67.90839695 14.26978957 67.91040039 16.33276367 C67.91168945 17.58831055 67.91297852 18.84385742 67.91430664 20.13745117 C67.91221191 20.79455078 67.91011719 21.45165039 67.90795898 22.12866211 C67.90261023 24.13687702 67.9079048 26.14486826 67.91430664 28.15307617 C67.91301758 29.40862305 67.91172852 30.66416992 67.91040039 31.95776367 C67.90927246 33.11920898 67.90814453 34.2806543 67.90698242 35.47729492 C67.77758789 38.14526367 67.77758789 38.14526367 66.77758789 39.14526367 C64.92389178 39.23264012 63.06691248 39.2522452 61.21118164 39.24291992 C60.08647461 39.23969727 58.96176758 39.23647461 57.80297852 39.2331543 C56.61897461 39.22477539 55.4349707 39.21639648 54.21508789 39.20776367 C53.0272168 39.20325195 51.8393457 39.19874023 50.61547852 39.1940918 C47.66946563 39.18226042 44.72355108 39.16577654 41.77758789 39.14526367 C40.78758789 35.18526367 40.78758789 35.18526367 39.77758789 31.14526367 C37.46758789 30.48526367 35.15758789 29.82526367 32.77758789 29.14526367 C32.44758789 22.87526367 32.11758789 16.60526367 31.77758789 10.14526367 C29.46758789 10.14526367 27.15758789 10.14526367 24.77758789 10.14526367 C24.11758789 12.45526367 23.45758789 14.76526367 22.77758789 17.14526367 C19.80758789 17.64026367 19.80758789 17.64026367 16.77758789 18.14526367 C16.77758789 29.03526367 16.77758789 39.92526367 16.77758789 51.14526367 C19.41758789 51.47526367 22.05758789 51.80526367 24.77758789 52.14526367 C25.77758789 53.14526367 25.77758789 53.14526367 25.84008789 56.70776367 C25.81946289 57.84213867 25.79883789 58.97651367 25.77758789 60.14526367 C26.59026123 60.14002686 27.40293457 60.13479004 28.24023438 60.12939453 C31.89851111 60.10869373 35.55677556 60.09562564 39.21508789 60.08276367 C40.49448242 60.07438477 41.77387695 60.06600586 43.09204102 60.05737305 C44.30698242 60.05415039 45.52192383 60.05092773 46.77368164 60.04760742 C47.89959717 60.04237061 49.0255127 60.03713379 50.18554688 60.03173828 C52.77758789 60.14526367 52.77758789 60.14526367 53.77758789 61.14526367 C54.1451952 63.47344331 54.4800037 65.80710217 54.77758789 68.14526367 C57.08758789 68.47526367 59.39758789 68.80526367 61.77758789 69.14526367 C61.96321289 70.25901367 62.14883789 71.37276367 62.34008789 72.52026367 C62.81446289 73.71651367 63.28883789 74.91276367 63.77758789 76.14526367 C66.08758789 76.80526367 68.39758789 77.46526367 70.77758789 78.14526367 C70.77758789 90.68526367 70.77758789 103.22526367 70.77758789 116.14526367 C67.31258789 117.13526367 67.31258789 117.13526367 63.77758789 118.14526367 C63.44758789 119.30026367 63.11758789 120.45526367 62.77758789 121.64526367 C62.44758789 122.80026367 62.11758789 123.95526367 61.77758789 125.14526367 C59.44425456 125.81193034 57.11092122 126.47859701 54.77758789 127.14526367 C54.11758789 129.45526367 53.45758789 131.76526367 52.77758789 134.14526367 C30.33758789 134.14526367 7.89758789 134.14526367 -15.22241211 134.14526367 C-16.21241211 131.50526367 -17.20241211 128.86526367 -18.22241211 126.14526367 C-21.7710437 124.53391021 -21.7710437 124.53391021 -25.22241211 124.14526367 C-25.28024251 119.68698441 -25.31595066 115.22880087 -25.34741211 110.77026367 C-25.36416992 109.49924805 -25.38092773 108.22823242 -25.39819336 106.91870117 C-25.40463867 105.70698242 -25.41108398 104.49526367 -25.41772461 103.24682617 C-25.42819824 102.12614746 -25.43867187 101.00546875 -25.44946289 99.85083008 C-25.22241211 97.14526367 -25.22241211 97.14526367 -23.22241211 95.14526367 C-20.59280584 94.9578383 -18.07047876 94.88957014 -15.44116211 94.91479492 C-14.67187378 94.91525314 -13.90258545 94.91571136 -13.10998535 94.91618347 C-11.48256896 94.91920615 -9.85515547 94.92709293 -8.2277832 94.93945312 C-5.73239934 94.95769068 -3.23738686 94.95996294 -0.74194336 94.9597168 C0.83748694 94.96463274 2.41691472 94.9704614 3.99633789 94.97729492 C5.11981628 94.97896416 5.11981628 94.97896416 6.26599121 94.98066711 C11.54544468 95.02919207 11.54544468 95.02919207 13.77758789 96.14526367 C14.10758789 105.38526367 14.43758789 114.62526367 14.77758789 124.14526367 C17.08758789 124.14526367 19.39758789 124.14526367 21.77758789 124.14526367 C22.43758789 121.83526367 23.09758789 119.52526367 23.77758789 117.14526367 C25.47915039 116.92870117 25.47915039 116.92870117 27.21508789 116.70776367 C30.5853599 116.53354889 30.5853599 116.53354889 31.77758789 115.14526367 C31.8661395 112.47900337 31.89283462 109.83879253 31.87524414 107.17260742 C31.87382919 106.37496475 31.87241425 105.57732208 31.87095642 104.75550842 C31.86534106 102.19788932 31.85278601 99.64035649 31.84008789 97.08276367 C31.83507487 95.35294722 31.83051162 93.62312941 31.82641602 91.89331055 C31.81536664 87.64392814 31.79809175 83.39461055 31.77758789 79.14526367 C31.21168945 78.99831055 30.64579102 78.85135742 30.06274414 78.69995117 C27.80346804 78.00906534 25.82640694 77.32777446 23.77758789 76.14526367 C22.77758789 72.95776367 22.77758789 72.95776367 22.77758789 70.14526367 C21.51313843 70.10767944 21.51313843 70.10767944 20.22314453 70.06933594 C17.10517115 69.97438212 13.98737286 69.87513919 10.86962891 69.77294922 C9.51844642 69.72955144 8.16720736 69.68787998 6.81591797 69.64794922 C4.87722088 69.59036416 2.93872513 69.5261207 1.00024414 69.46166992 C-0.16756592 69.42501221 -1.33537598 69.38835449 -2.53857422 69.35058594 C-5.22241211 69.14526367 -5.22241211 69.14526367 -6.22241211 68.14526367 C-6.59001942 65.81708404 -6.92482792 63.48342517 -7.22241211 61.14526367 C-9.53241211 60.81526367 -11.84241211 60.48526367 -14.22241211 60.14526367 C-14.55241211 57.83526367 -14.88241211 55.52526367 -15.22241211 53.14526367 C-16.35678711 53.00088867 -17.49116211 52.85651367 -18.65991211 52.70776367 C-22.22241211 52.14526367 -22.22241211 52.14526367 -23.22241211 51.14526367 C-23.33558495 48.79298049 -23.38657748 46.47114419 -23.39038086 44.11791992 C-23.39370926 43.41380478 -23.39703766 42.70968964 -23.40046692 41.98423767 C-23.40553866 40.49210261 -23.40787517 38.99995617 -23.40771484 37.5078125 C-23.4098997 35.2207576 -23.4280476 32.93418615 -23.44702148 30.6472168 C-23.44995565 29.19995283 -23.45194029 27.75268656 -23.45288086 26.30541992 C-23.46006638 25.61891861 -23.46725189 24.9324173 -23.47465515 24.22511292 C-23.4512358 19.37408736 -23.4512358 19.37408736 -21.22241211 17.14526367 C-19.23419898 16.74762105 -17.23296872 16.40751019 -15.22241211 16.14526367 C-14.56241211 13.83526367 -13.90241211 11.52526367 -13.22241211 9.14526367 C-11.24241211 8.81526367 -9.26241211 8.48526367 -7.22241211 8.14526367 C-7.07803711 7.01088867 -6.93366211 5.87651367 -6.78491211 4.70776367 C-5.94373218 -0.61970921 -5.02579836 0.0194179 0 0 Z " fill="#55B6BF" transform="translate(820.222412109375,29.854736328125)"/>
<path d="M0 0 C0.77399643 0.00718552 1.54799286 0.01437103 2.34544373 0.02177429 C3.5362278 0.02246162 3.5362278 0.02246162 4.75106812 0.02316284 C6.42975865 0.02618539 8.10844637 0.03407179 9.78709412 0.0464325 C12.36588906 0.06469419 14.94432524 0.06694217 17.5231781 0.06669617 C19.15143643 0.07161108 20.77969232 0.07743929 22.40794373 0.08427429 C23.57197472 0.08594353 23.57197472 0.08594353 24.75952148 0.08764648 C30.1942374 0.13619297 30.1942374 0.13619297 31.31028748 1.25224304 C31.43398072 3.24575734 31.48825138 5.24360775 31.51560974 7.24076843 C31.54552757 9.16264732 31.54552757 9.16264732 31.5760498 11.12335205 C31.59303545 12.53219988 31.60991421 13.941049 31.62669373 15.34989929 C31.64725663 16.78337209 31.66825292 18.21683873 31.68966675 19.65029907 C31.74495607 23.42977424 31.79433493 27.20930474 31.84251404 30.98887634 C31.89267913 34.84299159 31.94839119 38.69702613 32.00364685 42.55107117 C32.11131226 50.11806018 32.21273844 57.68511614 32.31028748 65.25224304 C33.99831482 65.6350946 33.99831482 65.6350946 35.72044373 66.02568054 C36.90509216 66.43044617 38.0897406 66.83521179 39.31028748 67.25224304 C40.74778748 70.87724304 40.74778748 70.87724304 41.31028748 74.25224304 C43.29028748 74.25224304 45.27028748 74.25224304 47.31028748 74.25224304 C47.45466248 73.11786804 47.59903748 71.98349304 47.74778748 70.81474304 C48.31028748 67.25224304 48.31028748 67.25224304 49.31028748 66.25224304 C51.63846711 65.88463573 53.97212597 65.54982723 56.31028748 65.25224304 C56.32059494 64.45266678 56.3309024 63.65309052 56.34152222 62.82928467 C56.43932829 55.30957009 56.54181812 47.78994111 56.64962673 40.27036381 C56.70489103 36.40408294 56.75831648 32.53779456 56.80760193 28.6714325 C56.85519397 24.94314218 56.90753463 21.21494652 56.96322823 17.48676872 C56.98367526 16.06137371 57.00238439 14.63595272 57.0193615 13.21051216 C57.04335344 11.22053763 57.07398884 9.2306465 57.10496521 7.24076843 C57.12050949 6.10603592 57.13605377 4.97130341 57.15206909 3.80218506 C57.31028748 1.25224304 57.31028748 1.25224304 58.31028748 0.25224304 C60.96484941 0.1512874 63.59283923 0.11253306 66.24778748 0.11943054 C67.04305847 0.11847382 67.83832947 0.11751709 68.65769958 0.11653137 C70.34235208 0.11584961 72.02700719 0.11770362 73.71165466 0.12187195 C76.29927944 0.12722029 78.88673063 0.12192685 81.47434998 0.11552429 C83.10716286 0.11618507 84.73997564 0.11746624 86.37278748 0.11943054 C87.15194519 0.11740631 87.93110291 0.11538208 88.73387146 0.11329651 C94.19533643 0.137292 94.19533643 0.137292 95.31028748 1.25224304 C95.40393754 3.00153024 95.42773185 4.75460558 95.42381287 6.50639343 C95.42369957 8.1880233 95.42369957 8.1880233 95.42358398 9.90362549 C95.4184227 11.12339584 95.41326141 12.3431662 95.40794373 13.59989929 C95.40652878 14.84146286 95.40511383 16.08302643 95.40365601 17.36221313 C95.39899338 20.66829795 95.39000244 23.97431451 95.37895203 27.28038025 C95.36873574 30.65185454 95.36415792 34.02333587 95.3591156 37.39482117 C95.34806143 44.01398079 95.33130484 50.63310797 95.31028748 57.25224304 C94.17591248 57.51005554 93.04153748 57.76786804 91.87278748 58.03349304 C90.69716248 58.43568054 89.52153748 58.83786804 88.31028748 59.25224304 C87.98028748 60.40724304 87.65028748 61.56224304 87.31028748 62.75224304 C86.98028748 63.90724304 86.65028748 65.06224304 86.31028748 66.25224304 C83.97695414 66.91890971 81.64362081 67.58557638 79.31028748 68.25224304 C77.76942426 71.76624972 77.76942426 71.76624972 77.31028748 75.25224304 C73.02028748 75.58224304 68.73028748 75.91224304 64.31028748 76.25224304 C64.27270325 78.83443665 64.27270325 78.83443665 64.23435974 81.46879578 C64.15060036 87.14461792 64.06232896 92.82035775 63.97094822 98.49606228 C63.91568868 101.93860044 63.86226401 105.38114704 63.81297302 108.82377625 C63.75627947 112.7778883 63.69171253 116.73185249 63.62669373 120.68583679 C63.60998123 121.92748093 63.59326874 123.16912506 63.5760498 124.44839478 C63.55610458 125.58950211 63.53615936 126.73060944 63.51560974 127.90629578 C63.50006546 128.91667404 63.48452118 129.92705231 63.46850586 130.9680481 C63.31028748 133.25224304 63.31028748 133.25224304 62.31028748 134.25224304 C59.65572554 134.35319868 57.02773572 134.39195303 54.37278748 134.38505554 C53.17988098 134.38649063 53.17988098 134.38649063 51.96287537 134.38795471 C50.27822287 134.38863647 48.59356776 134.38678247 46.90892029 134.38261414 C44.32129551 134.37726579 41.73384432 134.38255923 39.14622498 134.38896179 C37.51341209 134.38830101 35.88059931 134.38701985 34.24778748 134.38505554 C33.46862976 134.38707977 32.68947205 134.389104 31.88670349 134.39118958 C26.42523852 134.36719409 26.42523852 134.36719409 25.31028748 133.25224304 C25.1870599 131.47320947 25.13239729 129.68938102 25.10496521 127.90629578 C25.07504738 126.19463478 25.07504738 126.19463478 25.04452515 124.44839478 C25.02781265 123.20675064 25.01110016 121.96510651 24.99388123 120.68583679 C24.97310013 119.42207718 24.95231903 118.15831757 24.9309082 116.85626221 C24.87645033 113.49105671 24.82624468 110.12584131 24.77806091 106.76054382 C24.72788989 103.32868404 24.67218093 99.89691473 24.6169281 96.46513367 C24.50958553 89.72757312 24.40835577 82.9899447 24.31028748 76.25224304 C20.02028748 75.92224304 15.73028748 75.59224304 11.31028748 75.25224304 C10.95966248 73.97349304 10.60903748 72.69474304 10.24778748 71.37724304 C9.51604261 69.15542974 9.51604261 69.15542974 8.31028748 67.25224304 C4.76165588 65.64088958 4.76165588 65.64088958 1.31028748 65.25224304 C0.98028748 63.27224304 0.65028748 61.29224304 0.31028748 59.25224304 C-0.82408752 58.94286804 -1.95846252 58.63349304 -3.12721252 58.31474304 C-6.68971252 57.25224304 -6.68971252 57.25224304 -7.68971252 56.25224304 C-7.79368271 54.57515881 -7.82824162 52.89371513 -7.8349762 51.21342468 C-7.84135605 50.13883499 -7.8477359 49.0642453 -7.85430908 47.95709229 C-7.85542191 46.7873436 -7.85653473 45.61759491 -7.85768127 44.41239929 C-7.86100967 43.21997116 -7.86433807 42.02754303 -7.86776733 40.79898071 C-7.87284168 38.27111702 -7.8751755 35.74324659 -7.87501526 33.21537781 C-7.87720113 29.3349765 -7.89535009 25.45485958 -7.9143219 21.57450867 C-7.91725575 19.12463985 -7.9192406 16.67476968 -7.92018127 14.22489929 C-7.92736679 13.05717484 -7.93455231 11.88945038 -7.94195557 10.68634033 C-7.93887894 9.60859848 -7.93580231 8.53085663 -7.93263245 7.42045593 C-7.93405746 6.46860916 -7.93548248 5.51676239 -7.93695068 4.53607178 C-7.40104588 -0.41427563 -4.22415268 0.01811643 0 0 Z " fill="#FDFDFD" transform="translate(1744.689712524414,29.747756958007813)"/>
<path d="M0 0 C0.77915771 0.00202423 1.55831543 0.00404846 2.36108398 0.00613403 C3.15635498 0.00517731 3.95162598 0.00422058 4.77099609 0.00323486 C6.45564859 0.0025531 8.1403037 0.00440711 9.82495117 0.00857544 C12.41257595 0.01392378 15.00002714 0.00863034 17.58764648 0.00222778 C19.22045937 0.00288857 20.85327215 0.00416973 22.48608398 0.00613403 C23.2652417 0.0041098 24.04439941 0.00208557 24.84716797 0 C30.30863294 0.02399549 30.30863294 0.02399549 31.42358398 1.13894653 C31.53170912 2.73275731 31.57042695 4.33132301 31.58180237 5.92875671 C31.59159119 6.96507233 31.60138 8.00138794 31.61146545 9.06910706 C31.62009865 10.7889254 31.62009865 10.7889254 31.62890625 12.54348755 C31.63880585 13.74332275 31.64870544 14.94315796 31.65890503 16.17935181 C31.68515531 19.47876892 31.70699141 22.77816101 31.72690701 26.07761884 C31.74872912 29.52231823 31.77613622 32.96697296 31.80296326 36.41163635 C31.85294136 42.93874142 31.89786113 49.46587121 31.94098562 55.99302477 C31.99031436 63.42219842 32.04524862 70.85132727 32.10066521 78.28045762 C32.21456378 93.56657921 32.32138558 108.85274197 32.42358398 124.13894653 C34.73358398 124.13894653 37.04358398 124.13894653 39.42358398 124.13894653 C39.75358398 117.86894653 40.08358398 111.59894653 40.42358398 105.13894653 C47.42358398 103.13894653 47.42358398 103.13894653 49.42358398 103.13894653 C49.40295898 102.00457153 49.38233398 100.87019653 49.36108398 99.70144653 C49.42358398 96.13894653 49.42358398 96.13894653 50.42358398 95.13894653 C54.89690357 94.88514419 59.38141859 94.95371932 63.86108398 94.95144653 C65.12758789 94.93920044 66.3940918 94.92695435 67.69897461 94.91433716 C68.90618164 94.91240356 70.11338867 94.91046997 71.35717773 94.90847778 C73.02864868 94.90231445 73.02864868 94.90231445 74.73388672 94.89602661 C77.42358398 95.13894653 77.42358398 95.13894653 79.42358398 97.13894653 C79.68237305 99.81277466 79.68237305 99.81277466 79.68920898 103.17019653 C79.69307617 104.9742395 79.69307617 104.9742395 79.69702148 106.81472778 C79.68928711 108.07671997 79.68155273 109.33871216 79.67358398 110.63894653 C79.68518555 112.53193481 79.68518555 112.53193481 79.69702148 114.46316528 C79.69444336 115.6658606 79.69186523 116.86855591 79.68920898 118.10769653 C79.68695312 119.21564575 79.68469727 120.32359497 79.68237305 121.46511841 C79.42358398 124.13894653 79.42358398 124.13894653 77.42358398 126.13894653 C75.43537085 126.53658916 73.43414059 126.87670002 71.42358398 127.13894653 C70.76358398 129.44894653 70.10358398 131.75894653 69.42358398 134.13894653 C59.6620741 134.16207099 49.90057069 134.17986214 40.13903904 134.19075871 C35.60684304 134.19598731 31.07466572 134.20308454 26.54248047 134.21438599 C22.17235568 134.22521568 17.80224891 134.23122354 13.43211174 134.23382378 C11.76107436 134.23567788 10.09003801 134.23929821 8.41900826 134.24467659 C6.08660847 134.25188812 3.75428406 134.25293743 1.421875 134.25247192 C0.72416489 134.2560672 0.02645477 134.25966248 -0.69239807 134.2633667 C-5.46236385 134.25299869 -5.46236385 134.25299869 -6.57641602 133.13894653 C-6.67481308 131.43300562 -6.7027363 129.72296683 -6.70339966 128.01419067 C-6.70621948 126.90359283 -6.70903931 125.792995 -6.71194458 124.64874268 C-6.70992035 123.41961151 -6.70789612 122.19048035 -6.70581055 120.92410278 C-6.70756287 119.63809174 -6.70931519 118.35208069 -6.71112061 117.02709961 C-6.71569455 113.49000489 -6.71390554 109.95293921 -6.71074152 106.41584396 C-6.70821772 102.72206288 -6.71055551 99.02828435 -6.71212769 95.33450317 C-6.71394932 89.13031567 -6.71154323 82.92614005 -6.70678711 76.72195435 C-6.7013445 69.53911289 -6.70310716 62.35629982 -6.70861351 55.17345905 C-6.71314482 49.01720848 -6.71379511 42.86096648 -6.71117485 36.70471478 C-6.70961216 33.0231295 -6.70941806 29.34155758 -6.71271133 25.65997314 C-6.71612414 21.55789496 -6.71140004 17.45586606 -6.70581055 13.35379028 C-6.70783478 12.12465912 -6.70985901 10.89552795 -6.71194458 9.62915039 C-6.70912476 8.51855255 -6.70630493 7.40795471 -6.70339966 6.26370239 C-6.70302263 5.29250961 -6.70264561 4.32131683 -6.70225716 3.32069397 C-6.45042844 -1.04533964 -3.73809232 0.01642368 0 0 Z " fill="#FDFDFD" transform="translate(1460.576416015625,29.861053466796875)"/>
<path d="M0 0 C3.5 0.125 3.5 0.125 4.5 1.125 C4.54092937 3.45797433 4.54241723 5.79205225 4.5 8.125 C6.2015625 8.0940625 6.2015625 8.0940625 7.9375 8.0625 C11.5 8.125 11.5 8.125 12.5 9.125 C12.59530981 12.16902422 12.62551639 15.19031708 12.61352539 18.23461914 C12.61367142 19.19061508 12.61381744 20.14661102 12.6139679 21.13157654 C12.61326835 24.30779245 12.60547403 27.48395052 12.59765625 30.66015625 C12.59579222 32.85591093 12.59436825 35.05166602 12.59336853 37.24742126 C12.58954219 43.03920633 12.57971091 48.8309665 12.56866455 54.6227417 C12.55845293 60.52778791 12.55387145 66.43283813 12.54882812 72.33789062 C12.53808875 83.93360472 12.52101093 95.52930029 12.5 107.125 C10.81197266 107.50785156 10.81197266 107.50785156 9.08984375 107.8984375 C7.90519531 108.30320312 6.72054688 108.70796875 5.5 109.125 C3.95913678 112.63900668 3.95913678 112.63900668 3.5 116.125 C1.16705225 116.16741723 -1.16702567 116.16592937 -3.5 116.125 C-5.09183899 114.53316101 -4.62599125 112.89054501 -4.62698364 110.68359375 C-4.62980347 109.72445068 -4.63262329 108.76530762 -4.63552856 107.77709961 C-4.63350433 106.71628174 -4.6314801 105.65546387 -4.62939453 104.5625 C-4.63114685 103.45205322 -4.63289917 102.34160645 -4.63470459 101.19750977 C-4.63912572 97.50665754 -4.63618419 93.81585276 -4.6328125 90.125 C-4.63348546 87.57291657 -4.63445542 85.02083321 -4.63571167 82.46875 C-4.637189 77.11197238 -4.63512756 71.75521195 -4.63037109 66.3984375 C-4.62492851 60.19716285 -4.62669118 53.99592107 -4.6321975 47.79464722 C-4.63727437 41.83965785 -4.63674707 35.88467873 -4.63381577 29.9296875 C-4.63314624 27.39062495 -4.63397582 24.85156158 -4.63629532 22.3125 C-4.6388203 18.77081036 -4.63498342 15.22918483 -4.62939453 11.6875 C-4.63141876 10.62668213 -4.63344299 9.56586426 -4.63552856 8.47290039 C-4.63270874 7.51375732 -4.62988892 6.55461426 -4.62698364 5.56640625 C-4.62660662 4.72795166 -4.62622959 3.88949707 -4.62584114 3.02563477 C-4.39891497 -0.40173215 -3.55160053 0.12684288 0 0 Z " fill="#030303" transform="translate(1633.5,38.875)"/>
<path d="M0 0 C3.5 0.125 3.5 0.125 4.5 1.125 C4.54092937 3.45797433 4.54241723 5.79205225 4.5 8.125 C6.2015625 8.0940625 6.2015625 8.0940625 7.9375 8.0625 C11.5 8.125 11.5 8.125 12.5 9.125 C12.59530981 12.16902422 12.62551639 15.19031708 12.61352539 18.23461914 C12.61367142 19.19061508 12.61381744 20.14661102 12.6139679 21.13157654 C12.61326835 24.30779245 12.60547403 27.48395052 12.59765625 30.66015625 C12.59579222 32.85591093 12.59436825 35.05166602 12.59336853 37.24742126 C12.58954219 43.03920633 12.57971091 48.8309665 12.56866455 54.6227417 C12.55845293 60.52778791 12.55387145 66.43283813 12.54882812 72.33789062 C12.53808875 83.93360472 12.52101093 95.52930029 12.5 107.125 C10.81197266 107.50785156 10.81197266 107.50785156 9.08984375 107.8984375 C7.90519531 108.30320312 6.72054688 108.70796875 5.5 109.125 C3.95913678 112.63900668 3.95913678 112.63900668 3.5 116.125 C1.16705225 116.16741723 -1.16702567 116.16592937 -3.5 116.125 C-5.09183899 114.53316101 -4.62599125 112.89054501 -4.62698364 110.68359375 C-4.62980347 109.72445068 -4.63262329 108.76530762 -4.63552856 107.77709961 C-4.63350433 106.71628174 -4.6314801 105.65546387 -4.62939453 104.5625 C-4.63114685 103.45205322 -4.63289917 102.34160645 -4.63470459 101.19750977 C-4.63912572 97.50665754 -4.63618419 93.81585276 -4.6328125 90.125 C-4.63348546 87.57291657 -4.63445542 85.02083321 -4.63571167 82.46875 C-4.637189 77.11197238 -4.63512756 71.75521195 -4.63037109 66.3984375 C-4.62492851 60.19716285 -4.62669118 53.99592107 -4.6321975 47.79464722 C-4.63727437 41.83965785 -4.63674707 35.88467873 -4.63381577 29.9296875 C-4.63314624 27.39062495 -4.63397582 24.85156158 -4.63629532 22.3125 C-4.6388203 18.77081036 -4.63498342 15.22918483 -4.62939453 11.6875 C-4.63141876 10.62668213 -4.63344299 9.56586426 -4.63552856 8.47290039 C-4.63270874 7.51375732 -4.62988892 6.55461426 -4.62698364 5.56640625 C-4.62660662 4.72795166 -4.62622959 3.88949707 -4.62584114 3.02563477 C-4.39891497 -0.40173215 -3.55160053 0.12684288 0 0 Z " fill="#070707" transform="translate(1061.5,38.875)"/>
<path d="M0 0 C1.4540625 0.0309375 1.4540625 0.0309375 2.9375 0.0625 C3.123125 1.17625 3.30875 2.29 3.5 3.4375 C3.974375 4.63375 4.44875 5.83 4.9375 7.0625 C8.41707529 8.53332547 8.41707529 8.53332547 11.9375 9.0625 C13.84591444 10.97091444 13.06425361 13.79194588 13.07302856 16.33155823 C13.07100433 17.23341354 13.0689801 18.13526886 13.06689453 19.06445312 C13.06864685 20.0090892 13.07039917 20.95372528 13.07220459 21.92698669 C13.0766248 25.0659262 13.07368452 28.20480987 13.0703125 31.34375 C13.07098549 33.51468924 13.07195547 35.6856284 13.07321167 37.85656738 C13.07468887 42.41301183 13.07253337 46.96943672 13.06787109 51.52587891 C13.0621738 57.38076586 13.06545268 63.23560698 13.07144356 69.09049225 C13.07504857 73.57530058 13.07391086 78.06009796 13.07131577 82.54490662 C13.07064633 84.70438136 13.0714755 86.86385709 13.07379532 89.02333069 C13.07632086 92.03576308 13.07248264 95.04812013 13.06689453 98.06054688 C13.06891876 98.96240219 13.07094299 99.86425751 13.07302856 100.79344177 C13.05176231 106.94823769 13.05176231 106.94823769 11.9375 108.0625 C9.60932036 108.43010731 7.2756615 108.76491581 4.9375 109.0625 C4.2775 111.3725 3.6175 113.6825 2.9375 116.0625 C0.6275 116.0625 -1.6825 116.0625 -4.0625 116.0625 C-4.08582977 101.08563694 -4.10347956 86.10877528 -4.11431217 71.13189793 C-4.11947496 64.17833919 -4.12651734 57.22479173 -4.13793945 50.27124023 C-4.14894694 43.56692791 -4.15477621 36.86262975 -4.15737724 30.15830803 C-4.15923202 27.59412387 -4.16285364 25.02994038 -4.16823006 22.46576118 C-4.17543659 18.88804842 -4.17649111 15.31038481 -4.17602539 11.73266602 C-4.17962067 10.66092636 -4.18321594 9.58918671 -4.18692017 8.48497009 C-4.1855455 7.51596771 -4.18417084 6.54696533 -4.18275452 5.54859924 C-4.18367631 4.70147149 -4.1845981 3.85434374 -4.18554783 2.98154545 C-3.9770741 -0.2697965 -3.31982943 0.06775162 0 0 Z " fill="#010303" transform="translate(72.0625,38.9375)"/>
<path d="M0 0 C2.33294775 -0.04241723 4.66702567 -0.04092937 7 0 C8.6902477 1.6902477 8.13615437 3.81537347 8.14526367 6.13061523 C8.15164352 7.22522568 8.15802338 8.31983612 8.16459656 9.44761658 C8.16570938 10.63923904 8.1668222 11.83086151 8.16796875 13.05859375 C8.17129715 14.27321793 8.17462555 15.4878421 8.17805481 16.73927307 C8.18312923 19.31421529 8.18546298 21.88916411 8.18530273 24.46411133 C8.18748863 28.41693897 8.20563762 32.36948745 8.22460938 36.32226562 C8.22754322 38.81770737 8.22952808 41.31315045 8.23046875 43.80859375 C8.23765427 44.99819199 8.24483978 46.18779022 8.25224304 47.41343689 C8.24916641 48.51119949 8.24608978 49.6089621 8.24291992 50.73999023 C8.24434494 51.7096019 8.24576996 52.67921356 8.24723816 53.6782074 C8 56 8 56 6 58 C4.01178687 58.39764263 2.01055661 58.73775349 0 59 C-0.66 61.31 -1.32 63.62 -2 66 C-4.31 66 -6.62 66 -9 66 C-9 47.19 -9 28.38 -9 9 C-6.69 8.34 -4.38 7.68 -2 7 C-0.45913678 3.48599332 -0.45913678 3.48599332 0 0 Z " fill="#020404" transform="translate(519,39)"/>
<path d="M0 0 C3.5 0.125 3.5 0.125 4.5 1.125 C4.54092937 3.45797433 4.54241723 5.79205225 4.5 8.125 C6.2015625 8.0940625 6.2015625 8.0940625 7.9375 8.0625 C11.5 8.125 11.5 8.125 12.5 9.125 C12.5928726 10.53725046 12.61746772 11.95408934 12.61352539 13.36938477 C12.61344986 14.27024307 12.61337433 15.17110138 12.61329651 16.09925842 C12.60813522 17.07841721 12.60297394 18.05757599 12.59765625 19.06640625 C12.5962413 20.06381332 12.59482635 21.0612204 12.59336853 22.08885193 C12.58775114 25.28843124 12.57519571 28.48794169 12.5625 31.6875 C12.55748724 33.85091045 12.55292395 36.01432199 12.54882812 38.17773438 C12.53777607 43.49351325 12.52102104 48.80925171 12.5 54.125 C9.035 54.62 9.035 54.62 5.5 55.125 C5.2834375 56.8265625 5.2834375 56.8265625 5.0625 58.5625 C4.5 62.125 4.5 62.125 3.5 63.125 C0 63.25 0 63.25 -3.5 63.125 C-5.26723811 61.35776189 -4.62762833 58.8218116 -4.62939453 56.42773438 C-4.63254669 55.20977173 -4.63569885 53.99180908 -4.63894653 52.73693848 C-4.63715675 51.39754195 -4.6351058 50.05814576 -4.6328125 48.71875 C-4.6334856 47.3549396 -4.63445567 45.99112932 -4.63571167 44.62731934 C-4.63718838 41.76569479 -4.63503497 38.9041014 -4.63037109 36.04248047 C-4.62467381 32.36681386 -4.62795296 28.69122026 -4.63394356 25.01555634 C-4.63754991 22.19837896 -4.63641025 19.38121902 -4.63381577 16.56404114 C-4.6331467 15.20839937 -4.63397421 13.85275604 -4.63629532 12.49711609 C-4.63882301 10.60549956 -4.63429014 8.71387751 -4.62939453 6.82226562 C-4.62859894 5.74384399 -4.62780334 4.66542236 -4.62698364 3.55432129 C-4.42574161 -0.29563565 -4.00047687 0.14287417 0 0 Z " fill="#080808" transform="translate(1352.5,38.875)"/>
<path d="M0 0 C1.4540625 0.0309375 1.4540625 0.0309375 2.9375 0.0625 C3.5975 2.3725 4.2575 4.6825 4.9375 7.0625 C6.071875 7.206875 7.20625 7.35125 8.375 7.5 C11.9375 8.0625 11.9375 8.0625 12.9375 9.0625 C13.03860353 12.0078557 13.07719279 14.9292756 13.0703125 17.875 C13.07174759 19.20108276 13.07174759 19.20108276 13.07321167 20.55395508 C13.07389351 22.42692129 13.07203893 24.29988986 13.06787109 26.17285156 C13.06252289 29.05018388 13.06781593 31.92736008 13.07421875 34.8046875 C13.07355797 36.61979201 13.07227681 38.43489643 13.0703125 40.25 C13.07233673 41.11665283 13.07436096 41.98330566 13.07644653 42.8762207 C13.05245009 48.94754991 13.05245009 48.94754991 11.9375 50.0625 C9.60932036 50.43010731 7.2756615 50.76491581 4.9375 51.0625 C4.7209375 52.7640625 4.7209375 52.7640625 4.5 54.5 C3.9375 58.0625 3.9375 58.0625 2.9375 59.0625 C-0.0625 59.1875 -0.0625 59.1875 -3.0625 59.0625 C-4.7807309 57.3442691 -4.19004321 55.07652251 -4.19189453 52.73242188 C-4.19504669 51.59454224 -4.19819885 50.4566626 -4.20144653 49.28430176 C-4.1994223 48.04579468 -4.19739807 46.8072876 -4.1953125 45.53125 C-4.19626923 44.26986206 -4.19722595 43.00847412 -4.19821167 41.7088623 C-4.19889375 39.03552862 -4.19753529 36.36228563 -4.19287109 33.68896484 C-4.18717381 30.25543309 -4.19045301 26.8219795 -4.19644356 23.38845062 C-4.20091762 20.12354757 -4.19778883 16.85865407 -4.1953125 13.59375 C-4.19733673 12.35524292 -4.19936096 11.11673584 -4.20144653 9.84069824 C-4.19829437 8.7028186 -4.19514221 7.56493896 -4.19189453 6.39257812 C-4.19109894 5.38521606 -4.19030334 4.377854 -4.18948364 3.33996582 C-3.99305375 -0.18302621 -3.60543747 0.07358036 0 0 Z " fill="#000101" transform="translate(223.0625,38.9375)"/>
</svg>
